<?xml version="1.0" encoding="utf-8" standalone="no"?>
<!DOCTYPE svg PUBLIC "-//W3C//DTD SVG 1.1//EN" "http://www.w3.org/Graphics/SVG/1.1/DTD/svg11.dtd">
<!-- Created with Skedio (http://skedio.shturmsoft.com/) -->
<svg version="1.1" xmlns="http://www.w3.org/2000/svg" xmlns:xlink="http://www.w3.org/1999/xlink" width="446pt" height="608pt" viewBox="0 0 446 608">
<g id="layer1">
	<text x="39.400" y="537.642" transform="matrix(2.5110 0.0000 0.0000 2.5110 -59.5325 -812.3636)" style="font-family:Roboto;font-size:14.00;fill:#000000;stroke:none;">Bloco A</text>
	<g>
		<path fill="none" stroke="#000000" stroke-width="2.00" stroke-linecap="round" stroke-linejoin="round" d="M169.000 408.769L115.528,408.769 "/>
		<path fill="none" stroke="#000000" stroke-width="2.00" stroke-linecap="round" stroke-linejoin="round" d="M115.528 408.769C117.756,403.728 119.317,398.241 122.212,393.646 125.186,388.925 128.738,384.748 133.246,380.895 138.609,376.311 146.507,371.815 152.861,368.830 158.380,366.238 163.620,365.210 169.000,363.400 "/>
	</g>
	<path fill="none" stroke="#0247FE" stroke-width="2.00" stroke-linecap="round" stroke-linejoin="round" d="M126.561 404.468C127.468,401.343 127.687,398.076 129.283,395.092 131.093,391.707 136.388,384.988 137.374,385.482 138.653,386.123 131.579,405.678 132.573,406.066 133.698,406.505 144.332,382.239 145.934,382.474 146.462,382.552 146.694,384.003 146.588,385.351 146.314,388.813 139.263,403.404 139.336,403.434 139.412,403.466 144.945,388.427 147.610,384.147 149.138,381.692 151.355,378.556 152.103,378.902 153.558,379.576 146.960,404.325 147.978,404.656 148.647,404.874 151.625,398.665 153.090,394.600 155.105,389.012 156.794,373.782 157.781,373.793 158.271,373.798 158.831,376.601 158.825,378.930 158.814,383.884 153.897,399.136 153.990,402.164 154.013,402.907 154.137,403.494 154.365,403.541 154.638,403.597 155.156,402.765 155.620,401.957 156.702,400.074 158.505,395.673 159.620,391.751 161.042,386.748 162.482,374.159 162.820,374.203 163.264,374.261 159.347,404.690 160.377,404.913 161.027,405.053 163.759,397.667 164.529,393.384 165.433,388.350 164.642,382.100 164.698,376.459 "/>
	<text x="39.400" y="573.642" transform="matrix(2.5110 0.0000 0.0000 2.5110 -59.5325 -866.7586)" style="font-family:Roboto;font-size:14.00;fill:#000000;stroke:none;">Térreo</text>
	<ellipse fill="none" stroke="#0247FE" stroke-width="2.00" stroke-linecap="round" stroke-linejoin="round" cx="305.800" cy="557.800" rx="14.400" ry="14.400" />
	<text x="321.479" y="572.358" transform="matrix(1.5665 0.0000 0.0000 1.5665 -182.1172 -324.2396)" style="font-family:Roboto;font-size:14.00;fill:#000000;stroke:none;">Protocolo</text>
	<text x="321.479" y="529.158" transform="matrix(1.5665 0.0000 0.0000 1.5665 -182.1171 -299.7668)" style="font-family:Roboto;font-size:14.00;fill:#000000;stroke:none;">Biblioteca</text>
	<ellipse fill="none" stroke="#FD5308" stroke-width="2.00" stroke-linecap="round" stroke-linejoin="round" cx="305.800" cy="514.600" rx="14.400" ry="14.400" />
	<path fill="none" stroke="#0247FE" stroke-width="2.00" stroke-linecap="round" stroke-linejoin="round" d="M296.657 562.562C297.992,557.949 299.667,548.637 300.662,548.724 301.828,548.827 301.259,568.189 302.760,568.383 304.224,568.572 307.920,550.690 309.437,550.824 310.665,550.933 310.963,558.904 311.725,562.943 "/>
	<path fill="none" stroke="#FD5308" stroke-width="2.00" stroke-linecap="round" stroke-linejoin="round" d="M296.657 519.362C297.992,514.749 299.667,505.437 300.662,505.524 301.828,505.627 301.259,524.989 302.760,525.183 304.224,525.372 307.920,507.490 309.437,507.624 310.665,507.733 310.963,515.704 311.725,519.743 "/>
	<path fill="none" stroke="#000000" stroke-width="2.00" stroke-linecap="round" stroke-linejoin="round" d="M169.000 25.000L25.000,25.000 25.000,205.000 169.000,205.000 Z"/>
	<path fill="none" stroke="#000000" stroke-width="2.00" stroke-linecap="round" stroke-linejoin="round" d="M25.000 205.000L169.000,205.000 169.000,313.000 25.000,313.000 Z"/>
	<path fill="none" stroke="#000000" stroke-width="2.00" stroke-linecap="round" stroke-linejoin="round" d="M25.000 313.000L169.000,313.000 169.000,579.400 25.000,579.400 Z"/>
	<g>
		<path fill="none" stroke="#000000" stroke-width="2.00" stroke-linecap="round" stroke-linejoin="round" d="M169.000 178.370L115.528,178.370 "/>
		<path fill="none" stroke="#000000" stroke-width="2.00" stroke-linecap="round" stroke-linejoin="round" d="M115.528 178.370C117.756,173.328 119.317,167.842 122.212,163.246 125.186,158.526 128.738,154.348 133.246,150.495 138.609,145.911 146.507,141.415 152.861,138.430 158.380,135.838 163.620,134.810 169.000,133.000 "/>
	</g>
	<path fill="none" stroke="#FD5308" stroke-width="2.00" stroke-linecap="round" stroke-linejoin="round" d="M126.561 174.068C127.468,170.943 127.687,167.676 129.283,164.692 131.093,161.307 136.388,154.588 137.374,155.082 138.653,155.723 131.579,175.278 132.573,175.666 133.698,176.106 144.332,151.839 145.934,152.074 146.462,152.152 146.694,153.604 146.588,154.951 146.314,158.414 139.263,173.004 139.336,173.034 139.412,173.066 144.945,158.027 147.610,153.747 149.138,151.292 151.355,148.156 152.103,148.503 153.558,149.176 146.960,173.925 147.978,174.256 148.647,174.474 151.625,168.265 153.090,164.201 155.105,158.612 156.794,143.383 157.781,143.393 158.271,143.398 158.831,146.201 158.825,148.530 158.814,153.484 153.897,168.736 153.990,171.764 154.012,172.507 154.137,173.095 154.365,173.141 154.637,173.197 155.156,172.365 155.620,171.557 156.702,169.675 158.505,165.273 159.620,161.351 161.042,156.348 162.482,143.759 162.820,143.803 163.264,143.861 159.347,174.290 160.377,174.513 161.027,174.653 163.759,167.267 164.528,162.984 165.433,157.950 164.642,151.701 164.698,146.059 "/>
	<g>
		<path fill="none" stroke="#000000" stroke-width="2.00" stroke-linecap="round" stroke-linejoin="round" d="M169.000 77.570L115.528,77.570 "/>
		<path fill="none" stroke="#000000" stroke-width="2.00" stroke-linecap="round" stroke-linejoin="round" d="M115.528 77.570C117.756,72.528 119.317,67.042 122.212,62.446 125.186,57.726 128.738,53.548 133.246,49.695 138.609,45.111 146.507,40.615 152.861,37.630 158.380,35.038 163.620,34.010 169.000,32.200 "/>
	</g>
	<path fill="none" stroke="#FD5308" stroke-width="2.00" stroke-linecap="round" stroke-linejoin="round" d="M126.561 73.268C127.468,70.143 127.687,66.876 129.283,63.892 131.093,60.507 136.388,53.788 137.374,54.282 138.653,54.923 131.579,74.478 132.573,74.866 133.698,75.306 144.332,51.039 145.934,51.274 146.462,51.352 146.694,52.804 146.588,54.151 146.314,57.614 139.263,72.204 139.336,72.234 139.412,72.266 144.945,57.227 147.610,52.947 149.138,50.492 151.355,47.356 152.103,47.703 153.558,48.376 146.960,73.125 147.978,73.456 148.647,73.674 151.625,67.465 153.090,63.401 155.105,57.812 156.794,42.583 157.781,42.593 158.271,42.598 158.831,45.401 158.825,47.730 158.814,52.684 153.897,67.936 153.990,70.964 154.013,71.707 154.137,72.295 154.365,72.341 154.638,72.397 155.156,71.565 155.620,70.757 156.702,68.875 158.505,64.473 159.620,60.551 161.042,55.548 162.482,42.959 162.820,43.003 163.264,43.061 159.347,73.490 160.377,73.713 161.027,73.853 163.759,66.467 164.529,62.184 165.433,57.150 164.642,50.901 164.698,45.259 "/>
</g>
</svg>
