<?xml version="1.0" encoding="utf-8" standalone="no"?>
<!DOCTYPE svg PUBLIC "-//W3C//DTD SVG 1.1//EN" "http://www.w3.org/Graphics/SVG/1.1/DTD/svg11.dtd">
<!-- Created with Skedio (http://skedio.shturmsoft.com/) -->
<svg version="1.1" xmlns="http://www.w3.org/2000/svg" xmlns:xlink="http://www.w3.org/1999/xlink" width="372pt" height="567pt" viewBox="0 0 372 567">
<g id="layer1">
	<ellipse fill="none" stroke="#0247FE" stroke-width="2.00" stroke-linecap="round" stroke-linejoin="round" cx="120.600" cy="471.400" rx="14.400" ry="14.400" />
	<text x="136.279" y="485.958" transform="matrix(1.5665 0.0000 0.0000 1.5665 -77.2016 -275.2943)" style="font-family:Roboto;font-size:14.00;fill:#000000;stroke:none;">Diretória de Ensino</text>
	<text x="136.279" y="442.758" transform="matrix(1.5665 0.0000 0.0000 1.5665 -77.2016 -250.8215)" style="font-family:Roboto;font-size:14.00;fill:#000000;stroke:none;">DAP</text>
	<ellipse fill="none" stroke="#FFFF33" stroke-width="2.00" stroke-linecap="round" stroke-linejoin="round" cx="120.600" cy="428.200" rx="14.400" ry="14.400" />
	<path fill="none" stroke="#0247FE" stroke-width="2.00" stroke-linecap="round" stroke-linejoin="round" d="M111.457 476.162C112.792,471.549 114.467,462.237 115.462,462.324 116.628,462.427 116.059,481.789 117.560,481.983 119.024,482.172 122.720,464.290 124.236,464.424 125.465,464.533 125.762,472.504 126.525,476.544 "/>
	<path fill="none" stroke="#FFFF33" stroke-width="2.00" stroke-linecap="round" stroke-linejoin="round" d="M111.457 432.962C112.792,428.349 114.467,419.037 115.462,419.125 116.628,419.227 116.059,438.589 117.560,438.783 119.024,438.972 122.720,421.090 124.236,421.224 125.465,421.333 125.762,429.304 126.525,433.344 "/>
	<path fill="none" stroke="#000000" stroke-width="2.00" stroke-linecap="round" stroke-linejoin="round" d="M220.313 410.818L172.292,410.557 173.653,159.641 223.836,159.914 223.835,160.080 "/>
	<path fill="none" stroke="#000000" stroke-width="2.00" stroke-linecap="round" stroke-linejoin="round" d="M85.997 282.955L85.635,349.866 45.488,349.648 45.851,282.737 Z"/>
	<path fill="none" stroke="#000000" stroke-width="2.00" stroke-linecap="round" stroke-linejoin="round" d="M341.655 26.727L341.383,76.910 107.195,75.640 107.467,25.457 Z"/>
	<path fill="none" stroke="#000000" stroke-width="2.00" stroke-linecap="round" stroke-linejoin="round" d="M340.654 211.409L339.570,411.464 226.366,410.851 "/>
	<path fill="none" stroke="#000000" stroke-width="2.00" stroke-linecap="round" stroke-linejoin="round" d="M220.313 410.818L105.381,410.195 107.467,25.457 341.655,26.727 340.662,209.900 "/>
	<path fill="none" stroke="#000000" stroke-width="2.00" stroke-linecap="round" stroke-linejoin="round" d="M223.835 160.046L223.836,159.913 340.930,160.548 340.662,209.900 "/>
	<path fill="none" stroke="#000000" stroke-width="2.00" stroke-linecap="round" stroke-linejoin="round" d="M105.708 349.975L85.635,349.866 "/>
	<path fill="none" stroke="#000000" stroke-width="2.00" stroke-linecap="round" stroke-linejoin="round" d="M105.726 346.629L85.653,346.521 "/>
	<path fill="none" stroke="#000000" stroke-width="2.00" stroke-linecap="round" stroke-linejoin="round" d="M105.744 343.284L85.671,343.175 "/>
	<path fill="none" stroke="#000000" stroke-width="2.00" stroke-linecap="round" stroke-linejoin="round" d="M105.835 326.556L85.762,326.447 "/>
	<path fill="none" stroke="#000000" stroke-width="2.00" stroke-linecap="round" stroke-linejoin="round" d="M105.817 329.901L85.743,329.793 "/>
	<path fill="none" stroke="#000000" stroke-width="2.00" stroke-linecap="round" stroke-linejoin="round" d="M105.853 323.210L85.780,323.102 "/>
	<path fill="none" stroke="#000000" stroke-width="2.00" stroke-linecap="round" stroke-linejoin="round" d="M105.889 316.519L85.816,316.410 "/>
	<path fill="none" stroke="#000000" stroke-width="2.00" stroke-linecap="round" stroke-linejoin="round" d="M105.944 306.483L85.870,306.374 "/>
	<path fill="none" stroke="#000000" stroke-width="2.00" stroke-linecap="round" stroke-linejoin="round" d="M105.926 309.828L85.852,309.719 "/>
	<path fill="none" stroke="#000000" stroke-width="2.00" stroke-linecap="round" stroke-linejoin="round" d="M105.962 303.137L85.888,303.028 "/>
	<path fill="none" stroke="#000000" stroke-width="2.00" stroke-linecap="round" stroke-linejoin="round" d="M105.998 296.446L85.925,296.337 "/>
	<path fill="none" stroke="#000000" stroke-width="2.00" stroke-linecap="round" stroke-linejoin="round" d="M106.034 289.755L85.961,289.646 "/>
	<path fill="none" stroke="#000000" stroke-width="2.00" stroke-linecap="round" stroke-linejoin="round" d="M105.762 339.938L85.689,339.829 "/>
	<path fill="none" stroke="#000000" stroke-width="2.00" stroke-linecap="round" stroke-linejoin="round" d="M105.781 336.593L85.707,336.484 "/>
	<path fill="none" stroke="#000000" stroke-width="2.00" stroke-linecap="round" stroke-linejoin="round" d="M105.799 333.247L85.725,333.138 "/>
	<path fill="none" stroke="#000000" stroke-width="2.00" stroke-linecap="round" stroke-linejoin="round" d="M105.853 323.210L85.780,323.102 "/>
	<path fill="none" stroke="#000000" stroke-width="2.00" stroke-linecap="round" stroke-linejoin="round" d="M105.871 319.865L85.798,319.756 "/>
	<path fill="none" stroke="#000000" stroke-width="2.00" stroke-linecap="round" stroke-linejoin="round" d="M105.889 316.519L85.816,316.410 "/>
	<path fill="none" stroke="#000000" stroke-width="2.00" stroke-linecap="round" stroke-linejoin="round" d="M105.889 316.519L85.816,316.410 "/>
	<path fill="none" stroke="#000000" stroke-width="2.00" stroke-linecap="round" stroke-linejoin="round" d="M105.907 313.174L85.834,313.065 "/>
	<path fill="none" stroke="#000000" stroke-width="2.00" stroke-linecap="round" stroke-linejoin="round" d="M105.926 309.828L85.852,309.719 "/>
	<path fill="none" stroke="#000000" stroke-width="2.00" stroke-linecap="round" stroke-linejoin="round" d="M105.962 303.137L85.889,303.028 "/>
	<path fill="none" stroke="#000000" stroke-width="2.00" stroke-linecap="round" stroke-linejoin="round" d="M105.980 299.792L85.907,299.683 "/>
	<path fill="none" stroke="#000000" stroke-width="2.00" stroke-linecap="round" stroke-linejoin="round" d="M105.998 296.446L85.925,296.337 "/>
	<path fill="none" stroke="#000000" stroke-width="2.00" stroke-linecap="round" stroke-linejoin="round" d="M105.998 296.446L85.925,296.337 "/>
	<path fill="none" stroke="#000000" stroke-width="2.00" stroke-linecap="round" stroke-linejoin="round" d="M106.016 293.100L85.943,292.992 "/>
	<path fill="none" stroke="#000000" stroke-width="2.00" stroke-linecap="round" stroke-linejoin="round" d="M106.034 289.755L85.961,289.646 "/>
	<path fill="none" stroke="#000000" stroke-width="2.00" stroke-linecap="round" stroke-linejoin="round" d="M106.052 286.409L85.979,286.300 "/>
	<path fill="none" stroke="#000000" stroke-width="2.00" stroke-linecap="round" stroke-linejoin="round" d="M79.141 283.026L79.577,262.957 "/>
	<path fill="none" stroke="#000000" stroke-width="2.00" stroke-linecap="round" stroke-linejoin="round" d="M85.830 283.171L86.267,263.103 "/>
	<path fill="none" stroke="#000000" stroke-width="2.00" stroke-linecap="round" stroke-linejoin="round" d="M82.486 283.099L82.922,263.030 "/>
	<path fill="none" stroke="#000000" stroke-width="2.00" stroke-linecap="round" stroke-linejoin="round" d="M75.796 282.953L76.233,262.884 "/>
	<path fill="none" stroke="#000000" stroke-width="2.00" stroke-linecap="round" stroke-linejoin="round" d="M72.451 282.880L72.888,262.812 "/>
	<path fill="none" stroke="#000000" stroke-width="2.00" stroke-linecap="round" stroke-linejoin="round" d="M69.106 282.807L69.543,262.739 "/>
	<path fill="none" stroke="#000000" stroke-width="2.00" stroke-linecap="round" stroke-linejoin="round" d="M65.762 282.735L66.198,262.666 "/>
	<path fill="none" stroke="#000000" stroke-width="2.00" stroke-linecap="round" stroke-linejoin="round" d="M62.417 282.662L62.854,262.593 "/>
	<path fill="none" stroke="#000000" stroke-width="2.00" stroke-linecap="round" stroke-linejoin="round" d="M59.072 282.589L59.509,262.521 "/>
	<path fill="none" stroke="#000000" stroke-width="2.00" stroke-linecap="round" stroke-linejoin="round" d="M65.759 282.953L66.195,262.884 "/>
	<path fill="none" stroke="#000000" stroke-width="2.00" stroke-linecap="round" stroke-linejoin="round" d="M72.448 283.099L72.885,263.030 "/>
	<path fill="none" stroke="#000000" stroke-width="2.00" stroke-linecap="round" stroke-linejoin="round" d="M69.103 283.026L69.540,262.957 "/>
	<path fill="none" stroke="#000000" stroke-width="2.00" stroke-linecap="round" stroke-linejoin="round" d="M62.414 282.881L62.850,262.812 "/>
	<path fill="none" stroke="#000000" stroke-width="2.00" stroke-linecap="round" stroke-linejoin="round" d="M59.069 282.808L59.506,262.739 "/>
	<path fill="none" stroke="#000000" stroke-width="2.00" stroke-linecap="round" stroke-linejoin="round" d="M55.724 282.735L56.161,262.666 "/>
	<path fill="none" stroke="#000000" stroke-width="2.00" stroke-linecap="round" stroke-linejoin="round" d="M52.379 282.662L52.816,262.593 "/>
	<path fill="none" stroke="#000000" stroke-width="2.00" stroke-linecap="round" stroke-linejoin="round" d="M49.034 282.589L49.471,262.521 "/>
	<path fill="none" stroke="#000000" stroke-width="2.00" stroke-linecap="round" stroke-linejoin="round" d="M45.690 282.517L46.127,262.448 "/>
	<path fill="none" stroke="#000000" stroke-width="2.00" stroke-linecap="round" stroke-linejoin="round" d="M45.506 346.303L25.433,346.194 "/>
	<path fill="none" stroke="#000000" stroke-width="2.00" stroke-linecap="round" stroke-linejoin="round" d="M45.524 342.957L25.451,342.849 "/>
	<path fill="none" stroke="#000000" stroke-width="2.00" stroke-linecap="round" stroke-linejoin="round" d="M45.542 339.612L25.469,339.503 "/>
	<path fill="none" stroke="#000000" stroke-width="2.00" stroke-linecap="round" stroke-linejoin="round" d="M45.633 322.884L25.560,322.775 "/>
	<path fill="none" stroke="#000000" stroke-width="2.00" stroke-linecap="round" stroke-linejoin="round" d="M45.615 326.230L25.542,326.121 "/>
	<path fill="none" stroke="#000000" stroke-width="2.00" stroke-linecap="round" stroke-linejoin="round" d="M45.742 302.810L25.669,302.702 "/>
	<path fill="none" stroke="#000000" stroke-width="2.00" stroke-linecap="round" stroke-linejoin="round" d="M45.560 336.266L25.487,336.158 "/>
	<path fill="none" stroke="#000000" stroke-width="2.00" stroke-linecap="round" stroke-linejoin="round" d="M45.579 332.921L25.505,332.812 "/>
	<path fill="none" stroke="#000000" stroke-width="2.00" stroke-linecap="round" stroke-linejoin="round" d="M45.597 329.575L25.524,329.466 "/>
	<path fill="none" stroke="#000000" stroke-width="2.00" stroke-linecap="round" stroke-linejoin="round" d="M45.651 319.538L25.578,319.429 "/>
	<path fill="none" stroke="#000000" stroke-width="2.00" stroke-linecap="round" stroke-linejoin="round" d="M45.669 316.193L25.596,316.084 "/>
	<path fill="none" stroke="#000000" stroke-width="2.00" stroke-linecap="round" stroke-linejoin="round" d="M45.688 312.847L25.614,312.738 "/>
	<path fill="none" stroke="#000000" stroke-width="2.00" stroke-linecap="round" stroke-linejoin="round" d="M45.706 309.502L25.632,309.393 "/>
	<path fill="none" stroke="#000000" stroke-width="2.00" stroke-linecap="round" stroke-linejoin="round" d="M45.724 306.156L25.650,306.048 "/>
	<path fill="none" stroke="#000000" stroke-width="2.00" stroke-linecap="round" stroke-linejoin="round" d="M45.760 299.465L25.687,299.357 "/>
	<path fill="none" stroke="#000000" stroke-width="2.00" stroke-linecap="round" stroke-linejoin="round" d="M45.778 296.120L25.705,296.011 "/>
	<path fill="none" stroke="#000000" stroke-width="2.00" stroke-linecap="round" stroke-linejoin="round" d="M45.796 292.774L25.723,292.665 "/>
	<path fill="none" stroke="#000000" stroke-width="2.00" stroke-linecap="round" stroke-linejoin="round" d="M45.814 289.428L25.741,289.320 "/>
	<path fill="none" stroke="#000000" stroke-width="2.00" stroke-linecap="round" stroke-linejoin="round" d="M45.832 286.083L25.759,285.974 "/>
	<path fill="none" stroke="#000000" stroke-width="2.00" stroke-linecap="round" stroke-linejoin="round" d="M45.851 282.737L25.778,282.629 "/>
	<path fill="none" stroke="#000000" stroke-width="2.00" stroke-linecap="round" stroke-linejoin="round" d="M105.708 349.975L106.198,259.645 25.904,259.210 25.415,349.540 Z"/>
	<g>
		<path fill="none" stroke="#000000" stroke-width="2.00" stroke-linecap="round" stroke-linejoin="round" d="M172.859 358.287L197.699,358.831 "/>
		<path fill="none" stroke="#000000" stroke-width="2.00" stroke-linecap="round" stroke-linejoin="round" d="M197.699 358.831C196.716,356.467 196.047,353.902 194.748,351.738 193.415,349.514 191.807,347.538 189.752,345.702 187.307,343.518 183.684,341.348 180.762,339.898 178.225,338.637 175.801,338.106 173.320,337.211 "/>
	</g>
	<path fill="none" stroke="#0247FE" stroke-width="2.00" stroke-linecap="round" stroke-linejoin="round" d="M192.616 356.720C192.215,355.259 192.144,353.739 191.414,352.336 190.585,350.745 188.128,347.568 187.654,347.787 187.038,348.072 190.211,357.230 189.733,357.400 189.192,357.592 184.369,346.208 183.603,346.301 183.350,346.331 183.225,347.003 183.262,347.630 183.357,349.241 186.571,356.093 186.536,356.107 186.499,356.120 184.014,349.076 182.787,347.060 182.083,345.904 181.058,344.424 180.698,344.577 179.997,344.875 182.891,356.441 182.403,356.584 182.081,356.678 180.725,353.762 180.068,351.859 179.164,349.242 178.514,342.149 178.043,342.144 177.810,342.142 177.513,343.437 177.492,344.519 177.447,346.821 179.637,353.958 179.562,355.363 179.543,355.708 179.478,355.980 179.369,355.999 179.239,356.022 179.000,355.630 178.787,355.250 178.290,354.364 177.475,352.301 176.983,350.467 176.356,348.128 175.797,342.265 175.636,342.282 175.423,342.304 176.982,356.481 176.488,356.574 176.176,356.632 174.949,353.172 174.626,351.174 174.246,348.827 174.687,345.932 174.717,343.310 "/>
	<path fill="none" stroke="#000000" stroke-width="2.00" stroke-linecap="round" stroke-linejoin="round" d="M340.513 237.496L340.676,207.386 "/>
	<path fill="none" stroke="#000000" stroke-width="2.00" stroke-linecap="round" stroke-linejoin="round" d="M222.476 410.830L205.748,410.739 "/>
	<path fill="none" stroke="#000000" stroke-width="2.00" stroke-linecap="round" stroke-linejoin="round" d="M229.167 410.866L209.093,410.757 "/>
	<g>
		<path fill="none" stroke="#000000" stroke-width="2.00" stroke-linecap="round" stroke-linejoin="round" d="M149.679 75.870L149.814,51.024 "/>
		<path fill="none" stroke="#000000" stroke-width="2.00" stroke-linecap="round" stroke-linejoin="round" d="M149.814 51.024C152.150,52.072 154.696,52.811 156.824,54.168 159.010,55.562 160.942,57.223 162.721,59.327 164.838,61.831 166.907,65.512 168.278,68.472 169.468,71.043 169.933,73.481 170.760,75.985 "/>
	</g>
	<path fill="none" stroke="#FFFF33" stroke-width="2.00" stroke-linecap="round" stroke-linejoin="round" d="M151.785 56.162C153.235,56.591 154.752,56.701 156.135,57.450 157.703,58.300 160.812,60.777 160.579,61.234 160.279,61.826 151.210,58.490 151.027,58.951 150.820,59.473 162.069,64.475 161.956,65.219 161.918,65.464 161.243,65.568 160.617,65.515 159.009,65.379 152.247,62.066 152.233,62.100 152.218,62.135 159.192,64.745 161.174,65.993 162.311,66.710 163.763,67.747 163.599,68.095 163.283,68.769 151.800,65.641 151.643,66.113 151.540,66.423 154.418,67.822 156.303,68.513 158.895,69.464 165.967,70.287 165.960,70.746 165.956,70.973 164.652,71.226 163.570,71.218 161.268,71.200 154.193,68.877 152.786,68.912 152.441,68.921 152.167,68.978 152.145,69.084 152.119,69.210 152.504,69.453 152.878,69.671 153.750,70.178 155.791,71.027 157.611,71.555 159.932,72.228 165.778,72.929 165.756,73.086 165.728,73.292 151.599,71.395 151.493,71.874 151.426,72.175 154.851,73.463 156.839,73.831 159.176,74.265 162.082,73.913 164.704,73.953 "/>
	<path fill="none" stroke="#000000" stroke-width="2.00" stroke-linecap="round" stroke-linejoin="round" d="M331.957 133.194L332.393,113.125 "/>
	<path fill="none" stroke="#000000" stroke-width="2.00" stroke-linecap="round" stroke-linejoin="round" d="M338.646 133.340L339.083,113.271 "/>
	<path fill="none" stroke="#000000" stroke-width="2.00" stroke-linecap="round" stroke-linejoin="round" d="M335.301 133.267L335.738,113.198 "/>
	<path fill="none" stroke="#000000" stroke-width="2.00" stroke-linecap="round" stroke-linejoin="round" d="M328.612 133.121L329.049,113.052 "/>
	<path fill="none" stroke="#000000" stroke-width="2.00" stroke-linecap="round" stroke-linejoin="round" d="M325.264 133.267L325.701,113.199 "/>
	<path fill="none" stroke="#000000" stroke-width="2.00" stroke-linecap="round" stroke-linejoin="round" d="M321.919 133.194L322.356,113.126 "/>
	<text x="136.279" y="507.558" transform="matrix(1.5665 0.0000 0.0000 1.5665 -77.2016 -287.5306)" style="font-family:Roboto;font-size:14.00;fill:#000000;stroke:none;">e Apoio ao Estudante</text>
	<text x="214.200" y="362.367" transform="matrix(2.0291 0.0000 0.0000 2.0291 -220.4409 -372.9246)" style="font-family:Roboto;font-size:14.00;fill:#000000;stroke:none;">Bloco A</text>
	<text x="214.200" y="391.586" transform="matrix(2.0291 0.0000 0.0000 2.0291 -220.4409 -402.9953)" style="font-family:Roboto;font-size:14.00;fill:#000000;stroke:none;">Andar 1</text>
	<g>
		<path fill="none" stroke="#000000" stroke-width="2.00" stroke-linecap="round" stroke-linejoin="round" d="M250.479 75.870L250.614,51.024 "/>
		<path fill="none" stroke="#000000" stroke-width="2.00" stroke-linecap="round" stroke-linejoin="round" d="M250.614 51.024C252.950,52.072 255.496,52.811 257.624,54.168 259.810,55.562 261.742,57.223 263.521,59.327 265.638,61.831 267.707,65.512 269.078,68.472 270.268,71.043 270.733,73.481 271.560,75.985 "/>
	</g>
	<path fill="none" stroke="#FD5308" stroke-width="2.00" stroke-linecap="round" stroke-linejoin="round" d="M252.585 56.162C254.035,56.591 255.552,56.701 256.935,57.450 258.503,58.300 261.612,60.777 261.380,61.234 261.079,61.826 252.010,58.490 251.827,58.951 251.620,59.473 262.869,64.475 262.756,65.219 262.718,65.464 262.043,65.568 261.417,65.515 259.809,65.379 253.047,62.066 253.033,62.100 253.018,62.135 259.992,64.745 261.974,65.993 263.111,66.710 264.563,67.747 264.400,68.095 264.083,68.769 252.600,65.641 252.443,66.113 252.340,66.423 255.218,67.822 257.103,68.513 259.695,69.464 266.767,70.287 266.760,70.746 266.756,70.973 265.452,71.226 264.370,71.218 262.068,71.200 254.993,68.877 253.586,68.912 253.241,68.921 252.967,68.978 252.945,69.084 252.919,69.210 253.304,69.453 253.678,69.671 254.550,70.178 256.591,71.027 258.411,71.555 260.732,72.228 266.578,72.929 266.556,73.086 266.528,73.292 252.399,71.395 252.293,71.874 252.226,72.175 255.651,73.463 257.639,73.831 259.976,74.265 262.882,73.913 265.504,73.953 "/>
	<ellipse fill="none" stroke="#FD5308" stroke-width="2.00" stroke-linecap="round" stroke-linejoin="round" cx="120.600" cy="521.800" rx="14.400" ry="14.400" />
	<path fill="none" stroke="#FD5308" stroke-width="2.00" stroke-linecap="round" stroke-linejoin="round" d="M111.457 526.562C112.792,521.949 114.467,512.637 115.462,512.724 116.628,512.827 116.059,532.189 117.560,532.383 119.024,532.572 122.720,514.690 124.236,514.824 125.465,514.933 125.762,522.904 126.525,526.944 "/>
	<text x="136.279" y="536.358" transform="matrix(1.5665 0.0000 0.0000 1.5665 -77.2016 -303.8458)" style="font-family:Roboto;font-size:14.00;fill:#000000;stroke:none;">DREC</text>
</g>
</svg>
