<?xml version="1.0" encoding="utf-8" standalone="no"?>
<!DOCTYPE svg PUBLIC "-//W3C//DTD SVG 1.1//EN" "http://www.w3.org/Graphics/SVG/1.1/DTD/svg11.dtd">
<!-- Created with Skedio (http://skedio.shturmsoft.com/) -->
<svg version="1.1" xmlns="http://www.w3.org/2000/svg" xmlns:xlink="http://www.w3.org/1999/xlink" width="1186pt" height="1897pt" viewBox="0 0 1186 1897">
<g id="layer1">
	<ellipse fill="none" stroke="#0247FE" stroke-width="2.00" stroke-linecap="round" stroke-linejoin="round" cx="691.152" cy="1766.308" rx="27.628" ry="27.628" />
	<text x="721.234" y="1803.866" transform="matrix(3.0055 0.0000 0.0000 3.0055 -1446.4463 -3617.6816)" style="font-family:Roboto;font-size:14.00;fill:#000000;stroke:none;">Sala de idiomas</text>
	<path fill="none" stroke="#0247FE" stroke-width="2.00" stroke-linecap="round" stroke-linejoin="round" d="M673.610 1775.444C676.171,1766.595 679.386,1748.727 681.295,1748.896 683.532,1749.092 682.440,1786.240 685.320,1786.613 688.128,1786.975 695.220,1752.666 698.129,1752.923 700.486,1753.132 701.057,1768.426 702.521,1776.176 "/>
	<path fill="none" stroke="#000000" stroke-width="2.00" stroke-linecap="round" stroke-linejoin="round" d="M172.114 1540.819C175.321,1542.261 178.805,1543.254 181.737,1545.144 184.749,1547.085 187.422,1549.417 189.900,1552.389 192.848,1555.924 195.763,1561.151 197.709,1565.361 199.398,1569.018 200.097,1572.503 201.291,1576.074 "/>
	<path fill="none" stroke="#0247FE" stroke-width="2.00" stroke-linecap="round" stroke-linejoin="round" d="M174.935 1548.138C176.920,1548.715 178.987,1548.832 180.888,1549.870 183.045,1551.048 187.341,1554.520 187.038,1555.181 186.645,1556.039 174.216,1551.494 173.980,1552.160 173.713,1552.914 189.153,1559.792 189.019,1560.862 188.975,1561.215 188.059,1561.382 187.206,1561.323 185.014,1561.170 175.725,1556.597 175.707,1556.646 175.687,1556.697 185.246,1560.255 187.976,1561.994 189.543,1562.991 191.546,1564.442 191.334,1564.944 190.921,1565.919 175.214,1561.737 175.014,1562.419 174.882,1562.867 178.835,1564.797 181.418,1565.739 184.970,1567.034 194.614,1568.026 194.617,1568.685 194.618,1569.011 192.851,1569.409 191.379,1569.426 188.246,1569.461 178.558,1566.317 176.644,1566.405 176.176,1566.427 175.805,1566.515 175.777,1566.668 175.745,1566.850 176.275,1567.188 176.791,1567.490 177.991,1568.196 180.790,1569.359 183.280,1570.068 186.456,1570.972 194.429,1571.822 194.404,1572.048 194.371,1572.344 175.097,1569.999 174.966,1570.688 174.883,1571.123 179.578,1572.879 182.293,1573.355 185.483,1573.914 189.427,1573.332 192.995,1573.320 "/>
	<text x="1110.536" y="1567.427" transform="matrix(1.9186 0.0000 0.0000 1.9186 -1020.1613 -1439.8711)" style="font-family:Roboto;font-size:14.00;fill:#D0EA2B;stroke:none;"></text>
	<path fill="none" stroke="#000000" stroke-width="2.00" stroke-linecap="round" stroke-linejoin="round" d="M201.666 1576.634L172.869,1577.033 "/>
	<text x="340.192" y="1810.587" transform="matrix(3.8922 0.0000 0.0000 3.8922 -983.9113 -5236.6255)" style="font-family:Roboto;font-size:14.00;fill:#000000;stroke:none;">Bloco B</text>
	<text x="340.192" y="1853.778" transform="matrix(3.8922 0.0000 0.0000 3.8922 -983.9113 -5361.5444)" style="font-family:Roboto;font-size:14.00;fill:#000000;stroke:none;">Térreo</text>
	<ellipse fill="none" stroke="#FFFF33" stroke-width="2.00" stroke-linecap="round" stroke-linejoin="round" cx="691.152" cy="1698.922" rx="27.628" ry="27.628" />
	<path fill="none" stroke="#FFFF33" stroke-width="2.00" stroke-linecap="round" stroke-linejoin="round" d="M673.610 1708.058C676.171,1699.208 679.386,1681.341 681.295,1681.509 683.532,1681.706 682.440,1718.854 685.320,1719.227 688.128,1719.589 695.220,1685.280 698.129,1685.537 700.486,1685.746 701.057,1701.039 702.521,1708.790 "/>
	<ellipse fill="none" stroke="#66B032" stroke-width="2.00" stroke-linecap="round" stroke-linejoin="round" cx="691.152" cy="1631.535" rx="27.628" ry="27.628" />
	<path fill="none" stroke="#66B032" stroke-width="2.00" stroke-linecap="round" stroke-linejoin="round" d="M673.610 1640.672C676.171,1631.822 679.386,1613.955 681.295,1614.123 683.532,1614.320 682.440,1651.468 685.320,1651.840 688.128,1652.203 695.220,1617.893 698.129,1618.151 700.486,1618.359 701.057,1633.653 702.521,1641.404 "/>
	<text x="721.234" y="1736.479" transform="matrix(3.0055 0.0000 0.0000 3.0055 -1446.4463 -3482.5371)" style="font-family:Roboto;font-size:14.00;fill:#000000;stroke:none;">SGDE</text>
	<text x="721.234" y="1669.093" transform="matrix(3.0055 0.0000 0.0000 3.0055 -1446.4463 -3347.3936)" style="font-family:Roboto;font-size:14.00;fill:#000000;stroke:none;">Xadrez</text>
	<path fill="none" stroke="#000000" stroke-width="2.00" stroke-linecap="round" stroke-linejoin="round" d="M169.000 997.000L313.000,997.000 313.000,1861.000 169.000,1861.000 Z"/>
	<path fill="none" stroke="#000000" stroke-width="2.00" stroke-linecap="round" stroke-linejoin="round" d="M313.000 997.000L565.000,997.000 565.000,1069.000 313.000,1069.000 Z"/>
	<path fill="none" stroke="#000000" stroke-width="2.00" stroke-linecap="round" stroke-linejoin="round" d="M619.463 997.000L637.000,997.000 637.000,1861.000 565.000,1861.000 565.000,997.000 581.128,997.000 "/>
	<path fill="none" stroke="#000000" stroke-width="2.00" stroke-linecap="round" stroke-linejoin="round" d="M25.000 601.000L334.600,601.000 334.600,817.000 25.000,817.000 Z"/>
	<path fill="none" stroke="#000000" stroke-width="2.00" stroke-linecap="round" stroke-linejoin="round" d="M334.600 802.600L435.400,802.600 "/>
	<path fill="none" stroke="#000000" stroke-width="2.00" stroke-linecap="round" stroke-linejoin="round" d="M334.600 795.400L435.400,795.400 "/>
	<path fill="none" stroke="#000000" stroke-width="2.00" stroke-linecap="round" stroke-linejoin="round" d="M334.600 788.200L435.400,788.200 "/>
	<path fill="none" stroke="#000000" stroke-width="2.00" stroke-linecap="round" stroke-linejoin="round" d="M334.600 781.000L435.400,781.000 "/>
	<path fill="none" stroke="#000000" stroke-width="2.00" stroke-linecap="round" stroke-linejoin="round" d="M334.600 773.800L435.400,773.800 "/>
	<path fill="none" stroke="#000000" stroke-width="2.00" stroke-linecap="round" stroke-linejoin="round" d="M334.600 766.600L435.400,766.600 "/>
	<path fill="none" stroke="#000000" stroke-width="2.00" stroke-linecap="round" stroke-linejoin="round" d="M334.600 766.600L435.400,766.600 "/>
	<path fill="none" stroke="#000000" stroke-width="2.00" stroke-linecap="round" stroke-linejoin="round" d="M334.600 759.400L435.400,759.400 "/>
	<path fill="none" stroke="#000000" stroke-width="2.00" stroke-linecap="round" stroke-linejoin="round" d="M334.600 759.400L435.400,759.400 "/>
	<path fill="none" stroke="#000000" stroke-width="2.00" stroke-linecap="round" stroke-linejoin="round" d="M334.600 752.200L435.400,752.200 "/>
	<path fill="none" stroke="#000000" stroke-width="2.00" stroke-linecap="round" stroke-linejoin="round" d="M334.600 745.000L435.400,745.000 "/>
	<path fill="none" stroke="#000000" stroke-width="2.00" stroke-linecap="round" stroke-linejoin="round" d="M334.600 737.800L435.400,737.800 "/>
	<path fill="none" stroke="#000000" stroke-width="2.00" stroke-linecap="round" stroke-linejoin="round" d="M334.600 730.600L435.400,730.600 "/>
	<path fill="none" stroke="#000000" stroke-width="2.00" stroke-linecap="round" stroke-linejoin="round" d="M334.600 723.400L435.400,723.400 "/>
	<path fill="none" stroke="#000000" stroke-width="2.00" stroke-linecap="round" stroke-linejoin="round" d="M334.600 716.200L435.400,716.200 "/>
	<path fill="none" stroke="#000000" stroke-width="2.00" stroke-linecap="round" stroke-linejoin="round" d="M334.600 716.200L435.400,716.200 "/>
	<path fill="none" stroke="#000000" stroke-width="2.00" stroke-linecap="round" stroke-linejoin="round" d="M334.600 709.000L435.400,709.000 "/>
	<path fill="none" stroke="#000000" stroke-width="2.00" stroke-linecap="round" stroke-linejoin="round" d="M334.600 701.800L435.400,701.800 "/>
	<path fill="none" stroke="#000000" stroke-width="2.00" stroke-linecap="round" stroke-linejoin="round" d="M334.600 694.600L435.400,694.600 "/>
	<path fill="none" stroke="#000000" stroke-width="2.00" stroke-linecap="round" stroke-linejoin="round" d="M334.600 687.400L435.400,687.400 "/>
	<path fill="none" stroke="#000000" stroke-width="2.00" stroke-linecap="round" stroke-linejoin="round" d="M334.600 680.200L435.400,680.200 "/>
	<path fill="none" stroke="#000000" stroke-width="2.00" stroke-linecap="round" stroke-linejoin="round" d="M334.600 673.000L435.400,673.000 "/>
	<path fill="none" stroke="#000000" stroke-width="2.00" stroke-linecap="round" stroke-linejoin="round" d="M334.600 673.000L435.400,673.000 "/>
	<path fill="none" stroke="#000000" stroke-width="2.00" stroke-linecap="round" stroke-linejoin="round" d="M334.600 665.800L435.400,665.800 "/>
	<path fill="none" stroke="#000000" stroke-width="2.00" stroke-linecap="round" stroke-linejoin="round" d="M334.600 658.600L435.400,658.600 "/>
	<path fill="none" stroke="#000000" stroke-width="2.00" stroke-linecap="round" stroke-linejoin="round" d="M334.600 651.400L435.400,651.400 "/>
	<path fill="none" stroke="#000000" stroke-width="2.00" stroke-linecap="round" stroke-linejoin="round" d="M334.600 644.200L435.400,644.200 "/>
	<path fill="none" stroke="#000000" stroke-width="2.00" stroke-linecap="round" stroke-linejoin="round" d="M334.600 637.000L435.400,637.000 "/>
	<path fill="none" stroke="#000000" stroke-width="2.00" stroke-linecap="round" stroke-linejoin="round" d="M334.600 629.800L435.400,629.800 "/>
	<path fill="none" stroke="#000000" stroke-width="2.00" stroke-linecap="round" stroke-linejoin="round" d="M334.600 644.200L435.400,644.200 "/>
	<path fill="none" stroke="#000000" stroke-width="2.00" stroke-linecap="round" stroke-linejoin="round" d="M334.600 637.000L435.400,637.000 "/>
	<path fill="none" stroke="#000000" stroke-width="2.00" stroke-linecap="round" stroke-linejoin="round" d="M334.600 629.800L435.400,629.800 "/>
	<path fill="none" stroke="#000000" stroke-width="2.00" stroke-linecap="round" stroke-linejoin="round" d="M334.600 622.600L435.400,622.600 "/>
	<path fill="none" stroke="#000000" stroke-width="2.00" stroke-linecap="round" stroke-linejoin="round" d="M334.600 615.400L435.400,615.400 "/>
	<path fill="none" stroke="#000000" stroke-width="2.00" stroke-linecap="round" stroke-linejoin="round" d="M334.600 608.200L435.400,608.200 "/>
	<path fill="none" stroke="#000000" stroke-width="2.00" stroke-linecap="round" stroke-linejoin="round" d="M334.600 601.000L435.400,601.000 "/>
	<path fill="none" stroke="#000000" stroke-width="2.00" stroke-linecap="round" stroke-linejoin="round" d="M172.114 1209.619C175.321,1211.061 178.805,1212.054 181.737,1213.943 184.749,1215.885 187.423,1218.217 189.900,1221.188 192.848,1224.724 195.763,1229.950 197.709,1234.161 199.398,1237.818 200.097,1241.303 201.291,1244.874 "/>
	<path fill="none" stroke="#FE2712" stroke-width="2.00" stroke-linecap="round" stroke-linejoin="round" d="M174.935 1216.938C176.920,1217.515 178.987,1217.632 180.888,1218.670 183.045,1219.848 187.341,1223.319 187.038,1223.980 186.645,1224.839 174.216,1220.293 173.980,1220.960 173.713,1221.714 189.153,1228.592 189.019,1229.661 188.975,1230.014 188.059,1230.182 187.206,1230.122 185.014,1229.970 175.725,1225.397 175.707,1225.446 175.687,1225.496 185.246,1229.055 187.977,1230.794 189.543,1231.791 191.546,1233.241 191.334,1233.744 190.921,1234.719 175.214,1230.537 175.014,1231.219 174.882,1231.667 178.835,1233.597 181.418,1234.539 184.970,1235.833 194.614,1236.826 194.617,1237.485 194.618,1237.811 192.851,1238.209 191.379,1238.226 188.246,1238.261 178.558,1235.116 176.644,1235.205 176.176,1235.227 175.805,1235.315 175.777,1235.467 175.745,1235.649 176.275,1235.988 176.791,1236.290 177.991,1236.995 180.790,1238.159 183.280,1238.868 186.456,1239.772 194.429,1240.622 194.404,1240.847 194.371,1241.144 175.097,1238.799 174.966,1239.488 174.883,1239.922 179.578,1241.679 182.293,1242.155 185.483,1242.714 189.427,1242.131 192.995,1242.120 "/>
	<path fill="none" stroke="#000000" stroke-width="2.00" stroke-linecap="round" stroke-linejoin="round" d="M201.666 1245.434L172.869,1245.833 "/>
	<path fill="none" stroke="#000000" stroke-width="2.00" stroke-linecap="round" stroke-linejoin="round" d="M172.114 1317.619C175.321,1319.061 178.805,1320.054 181.737,1321.944 184.749,1323.885 187.423,1326.217 189.900,1329.188 192.848,1332.724 195.763,1337.950 197.709,1342.161 199.398,1345.818 200.097,1349.303 201.291,1352.874 "/>
	<path fill="none" stroke="#FE2712" stroke-width="2.00" stroke-linecap="round" stroke-linejoin="round" d="M174.935 1324.938C176.920,1325.515 178.987,1325.632 180.888,1326.670 183.045,1327.848 187.341,1331.320 187.038,1331.981 186.645,1332.839 174.216,1328.294 173.980,1328.960 173.713,1329.714 189.153,1336.592 189.019,1337.662 188.975,1338.015 188.059,1338.182 187.206,1338.123 185.014,1337.970 175.725,1333.397 175.707,1333.446 175.687,1333.497 185.246,1337.055 187.977,1338.794 189.543,1339.791 191.546,1341.241 191.334,1341.744 190.921,1342.719 175.214,1338.537 175.014,1339.219 174.882,1339.667 178.835,1341.597 181.418,1342.539 184.970,1343.834 194.614,1344.826 194.617,1345.485 194.618,1345.811 192.851,1346.209 191.379,1346.226 188.246,1346.261 178.558,1343.117 176.644,1343.205 176.176,1343.227 175.805,1343.315 175.777,1343.468 175.745,1343.650 176.275,1343.988 176.791,1344.290 177.991,1344.996 180.790,1346.159 183.280,1346.868 186.456,1347.772 194.429,1348.622 194.404,1348.848 194.371,1349.144 175.097,1346.799 174.966,1347.488 174.883,1347.923 179.578,1349.679 182.293,1350.155 185.483,1350.714 189.427,1350.132 192.995,1350.120 "/>
	<path fill="none" stroke="#000000" stroke-width="2.00" stroke-linecap="round" stroke-linejoin="round" d="M201.666 1353.434L172.869,1353.833 "/>
	<g>
		<path fill="none" stroke="#7F2600" stroke-width="16.00" stroke-linecap="round" stroke-linejoin="round" d="M145.649 1384.438L145.649,1472.200 "/>
		<path fill="none" stroke="#7F2600" stroke-width="16.00" stroke-linecap="round" stroke-linejoin="round" d="M153.627 1384.438L153.627,1472.200 "/>
	</g>
	<g>
		<path fill="none" stroke="#7F2600" stroke-width="16.00" stroke-linecap="round" stroke-linejoin="round" d="M145.648 1629.238L145.648,1717.000 "/>
		<path fill="none" stroke="#7F2600" stroke-width="16.00" stroke-linecap="round" stroke-linejoin="round" d="M153.627 1629.238L153.627,1717.000 "/>
	</g>
	<g>
		<path fill="none" stroke="#7F2600" stroke-width="16.00" stroke-linecap="round" stroke-linejoin="round" d="M145.649 1110.838L145.649,1198.600 "/>
		<path fill="none" stroke="#7F2600" stroke-width="16.00" stroke-linecap="round" stroke-linejoin="round" d="M153.627 1110.838L153.627,1198.600 "/>
	</g>
	<path fill="none" stroke="#000000" stroke-width="2.00" stroke-linecap="round" stroke-linejoin="round" d="M578.261 817.000L565.000,817.000 565.000,601.000 637.000,601.000 637.000,817.000 613.923,817.000 "/>
	<path fill="none" stroke="#000000" stroke-width="2.00" stroke-linecap="round" stroke-linejoin="round" d="M189.624 816.725C191.285,813.601 192.497,810.178 194.607,807.354 196.775,804.452 199.328,801.911 202.533,799.599 206.347,796.851 211.906,794.226 216.365,792.515 220.236,791.028 223.878,790.522 227.635,789.526 "/>
	<path fill="none" stroke="#FFFF33" stroke-width="2.00" stroke-linecap="round" stroke-linejoin="round" d="M197.343 814.310C198.046,812.360 198.276,810.302 199.451,808.460 200.783,806.372 204.602,802.272 205.270,802.611 206.136,803.051 200.776,815.212 201.453,815.485 202.219,815.793 210.151,800.752 211.250,800.945 211.613,801.008 211.738,801.933 211.631,802.781 211.357,804.961 206.134,813.986 206.184,814.007 206.235,814.029 210.422,804.679 212.366,802.048 213.481,800.539 215.087,798.618 215.595,798.858 216.582,799.323 211.424,814.779 212.118,815.016 212.574,815.172 214.781,811.330 215.891,808.803 217.419,805.327 218.957,795.751 219.638,795.785 219.976,795.802 220.294,797.588 220.233,799.059 220.104,802.189 216.337,811.691 216.327,813.606 216.325,814.076 216.396,814.451 216.553,814.487 216.739,814.529 217.117,814.018 217.458,813.520 218.251,812.360 219.602,809.629 220.468,807.181 221.572,804.059 222.873,796.145 223.105,796.182 223.410,796.231 219.962,815.349 220.668,815.518 221.113,815.624 223.179,811.033 223.815,808.347 224.563,805.192 224.170,801.222 224.347,797.659 "/>
	<path fill="none" stroke="#000000" stroke-width="2.00" stroke-linecap="round" stroke-linejoin="round" d="M228.234 789.182L227.119,817.961 "/>
	<path fill="none" stroke="#000000" stroke-width="2.00" stroke-linecap="round" stroke-linejoin="round" d="M435.400 601.000L435.400,802.600 "/>
	<path fill="none" stroke="#000000" stroke-width="2.00" stroke-linecap="round" stroke-linejoin="round" d="M435.400 601.000L572.200,601.000 "/>
	<path fill="none" stroke="#000000" stroke-width="2.00" stroke-linecap="round" stroke-linejoin="round" d="M428.200 802.600L565.000,802.600 "/>
	<path fill="none" stroke="#000000" stroke-width="2.00" stroke-linecap="round" stroke-linejoin="round" d="M25.000 817.000L25.000,1861.000 "/>
	<path fill="none" stroke="#000000" stroke-width="2.00" stroke-linecap="round" stroke-linejoin="round" d="M82.600 1853.800L125.800,1853.800 "/>
	<path fill="none" stroke="#000000" stroke-width="2.00" stroke-linecap="round" stroke-linejoin="round" d="M82.600 1846.600L125.800,1846.600 "/>
	<path fill="none" stroke="#000000" stroke-width="2.00" stroke-linecap="round" stroke-linejoin="round" d="M82.600 1839.400L125.800,1839.400 "/>
	<path fill="none" stroke="#000000" stroke-width="2.00" stroke-linecap="round" stroke-linejoin="round" d="M82.600 1832.200L125.800,1832.200 "/>
	<path fill="none" stroke="#000000" stroke-width="2.00" stroke-linecap="round" stroke-linejoin="round" d="M82.600 1825.000L125.800,1825.000 "/>
	<path fill="none" stroke="#000000" stroke-width="2.00" stroke-linecap="round" stroke-linejoin="round" d="M82.600 1817.800L125.800,1817.800 "/>
	<path fill="none" stroke="#000000" stroke-width="2.00" stroke-linecap="round" stroke-linejoin="round" d="M82.600 1810.600L125.800,1810.600 "/>
	<path fill="none" stroke="#000000" stroke-width="2.00" stroke-linecap="round" stroke-linejoin="round" d="M82.600 1803.400L125.800,1803.400 "/>
	<path fill="none" stroke="#000000" stroke-width="2.00" stroke-linecap="round" stroke-linejoin="round" d="M82.600 1796.200L125.800,1796.200 "/>
	<path fill="none" stroke="#000000" stroke-width="2.00" stroke-linecap="round" stroke-linejoin="round" d="M82.600 1789.000L125.800,1789.000 "/>
	<path fill="none" stroke="#000000" stroke-width="2.00" stroke-linecap="round" stroke-linejoin="round" d="M82.600 1781.800L125.800,1781.800 "/>
	<path fill="none" stroke="#000000" stroke-width="2.00" stroke-linecap="round" stroke-linejoin="round" d="M176.200 1861.000L25.000,1861.000 "/>
	<path fill="none" stroke="#000000" stroke-width="2.00" stroke-linecap="round" stroke-linejoin="round" d="M561.666 1310.632C558.459,1309.191 554.975,1308.198 552.043,1306.308 549.031,1304.367 546.358,1302.035 543.880,1299.063 540.932,1295.528 538.017,1290.302 536.071,1286.091 534.382,1282.434 533.683,1278.949 532.490,1275.378 "/>
	<path fill="none" stroke="#000000" stroke-width="2.00" stroke-linecap="round" stroke-linejoin="round" d="M558.845 1303.314C556.860,1302.737 554.793,1302.620 552.892,1301.582 550.735,1300.404 546.439,1296.932 546.742,1296.271 547.135,1295.413 559.564,1299.958 559.800,1299.292 560.067,1298.538 544.627,1291.660 544.761,1290.590 544.806,1290.237 545.721,1290.070 546.574,1290.129 548.766,1290.281 558.055,1294.855 558.073,1294.806 558.093,1294.755 548.534,1291.197 545.804,1289.458 544.237,1288.461 542.234,1287.010 542.446,1286.508 542.859,1285.533 558.566,1289.715 558.766,1289.033 558.898,1288.585 554.945,1286.655 552.362,1285.713 548.810,1284.418 539.166,1283.426 539.164,1282.767 539.162,1282.441 540.929,1282.043 542.401,1282.026 545.534,1281.991 555.222,1285.135 557.136,1285.047 557.604,1285.025 557.975,1284.937 558.003,1284.784 558.035,1284.602 557.505,1284.264 556.989,1283.962 555.789,1283.256 552.990,1282.093 550.500,1281.384 547.323,1280.480 539.351,1279.630 539.376,1279.404 539.409,1279.108 558.683,1281.453 558.814,1280.764 558.897,1280.329 554.202,1278.573 551.487,1278.097 548.297,1277.538 544.353,1278.120 540.785,1278.132 "/>
	<path fill="none" stroke="#000000" stroke-width="2.00" stroke-linecap="round" stroke-linejoin="round" d="M532.114 1274.818L560.911,1274.419 "/>
	<path fill="none" stroke="#000000" stroke-width="2.00" stroke-linecap="round" stroke-linejoin="round" d="M183.400 997.000L125.800,997.000 "/>
	<path fill="none" stroke="#000000" stroke-width="2.00" stroke-linecap="round" stroke-linejoin="round" d="M25.000 997.000L68.200,997.000 "/>
	<path fill="none" stroke="#7F2600" stroke-width="10.00" stroke-linecap="round" stroke-linejoin="round" d="M629.800 608.200L629.800,788.200 "/>
	<path fill="none" stroke="#7F2600" stroke-width="10.00" stroke-linecap="round" stroke-linejoin="round" d="M629.800 1076.200L629.800,1832.200 "/>
	<path fill="none" stroke="#000000" stroke-width="2.00" stroke-linecap="round" stroke-linejoin="round" d="M637.000 997.000L781.000,997.000 781.000,1249.000 637.000,1249.000 Z"/>
	<path fill="none" stroke="#000000" stroke-width="2.00" stroke-linecap="round" stroke-linejoin="round" d="M689.311 999.634C687.584,1002.721 686.299,1006.118 684.129,1008.897 681.899,1011.751 679.292,1014.238 676.039,1016.480 672.167,1019.146 666.553,1021.652 662.059,1023.267 658.157,1024.671 654.505,1025.099 650.728,1026.014 "/>
	<path fill="none" stroke="#66B032" stroke-width="2.00" stroke-linecap="round" stroke-linejoin="round" d="M681.542 1001.884C680.798,1003.818 680.524,1005.871 679.310,1007.687 677.933,1009.747 674.027,1013.764 673.367,1013.410 672.510,1012.952 678.129,1000.908 677.459,1000.622 676.699,1000.297 668.448,1015.164 667.353,1014.948 666.991,1014.878 666.886,1013.951 667.011,1013.105 667.332,1010.931 672.746,1002.020 672.697,1001.998 672.646,1001.974 668.260,1011.233 666.261,1013.822 665.114,1015.307 663.467,1017.192 662.964,1016.942 661.987,1016.456 667.475,1001.114 666.786,1000.862 666.333,1000.696 664.045,1004.490 662.880,1006.993 661.279,1010.435 659.536,1019.976 658.856,1019.928 658.519,1019.904 658.239,1018.111 658.332,1016.642 658.528,1013.516 662.496,1004.096 662.548,1002.182 662.560,1001.712 662.496,1001.336 662.340,1001.297 662.155,1001.250 661.766,1001.753 661.415,1002.244 660.598,1003.386 659.188,1006.087 658.270,1008.517 657.100,1011.614 655.630,1019.499 655.398,1019.457 655.094,1019.401 658.950,1000.361 658.248,1000.178 657.806,1000.061 655.642,1004.608 654.949,1007.279 654.134,1010.418 654.442,1014.395 654.189,1017.954 "/>
	<path fill="none" stroke="#000000" stroke-width="2.00" stroke-linecap="round" stroke-linejoin="round" d="M650.121 1026.345L651.851,997.597 "/>
	<ellipse fill="none" stroke="#000000" stroke-width="2.00" stroke-linecap="round" stroke-linejoin="round" cx="691.152" cy="1564.149" rx="27.628" ry="27.628" />
	<path fill="none" stroke="#000000" stroke-width="2.00" stroke-linecap="round" stroke-linejoin="round" d="M673.610 1573.285C676.171,1564.436 679.386,1546.568 681.295,1546.736 683.532,1546.933 682.440,1584.081 685.320,1584.454 688.128,1584.816 695.220,1550.507 698.129,1550.765 700.486,1550.973 701.057,1566.266 702.521,1574.018 "/>
	<ellipse fill="none" stroke="#FE2712" stroke-width="2.00" stroke-linecap="round" stroke-linejoin="round" cx="691.152" cy="1496.763" rx="27.628" ry="27.628" />
	<path fill="none" stroke="#FE2712" stroke-width="2.00" stroke-linecap="round" stroke-linejoin="round" d="M673.610 1505.899C676.171,1497.049 679.386,1479.182 681.295,1479.350 683.532,1479.547 682.440,1516.695 685.320,1517.068 688.128,1517.430 695.220,1483.121 698.129,1483.378 700.486,1483.587 701.057,1498.880 702.521,1506.631 "/>
	<text x="721.234" y="1601.707" transform="matrix(3.0055 0.0000 0.0000 3.0055 -1446.4463 -3212.2490)" style="font-family:Roboto;font-size:14.00;fill:#000000;stroke:none;">Departamento Eventos</text>
	<text x="721.234" y="1524.694" transform="matrix(3.0055 0.0000 0.0000 3.0055 -1446.4463 -3057.7979)" style="font-family:Roboto;font-size:14.00;fill:#000000;stroke:none;">Sala de Projeções</text>
	<path fill="none" stroke="#000000" stroke-width="2.00" stroke-linecap="round" stroke-linejoin="round" d="M637.000 25.000L781.000,25.000 781.000,349.000 637.000,349.000 Z"/>
	<path fill="none" stroke="#000000" stroke-width="2.00" stroke-linecap="round" stroke-linejoin="round" d="M640.114 194.633C643.322,193.191 646.805,192.198 649.737,190.309 652.749,188.367 655.423,186.035 657.900,183.063 660.848,179.528 663.763,174.302 665.709,170.091 667.399,166.434 668.097,162.949 669.291,159.378 "/>
	<path fill="none" stroke="#8601AF" stroke-width="2.00" stroke-linecap="round" stroke-linejoin="round" d="M642.935 187.314C644.920,186.737 646.987,186.620 648.888,185.582 651.045,184.404 655.342,180.932 655.039,180.271 654.645,179.413 642.217,183.958 641.980,183.292 641.713,182.538 657.153,175.660 657.019,174.590 656.975,174.237 656.059,174.070 655.206,174.129 653.015,174.281 643.725,178.855 643.707,178.806 643.688,178.755 653.246,175.197 655.977,173.458 657.543,172.461 659.546,171.011 659.334,170.508 658.922,169.533 643.214,173.715 643.014,173.033 642.883,172.585 646.836,170.655 649.419,169.713 652.970,168.419 662.614,167.426 662.617,166.767 662.618,166.441 660.851,166.043 659.379,166.026 656.247,165.991 646.559,169.135 644.645,169.047 644.176,169.025 643.805,168.937 643.778,168.784 643.745,168.603 644.276,168.264 644.791,167.962 645.991,167.256 648.790,166.093 651.281,165.384 654.457,164.480 662.429,163.630 662.404,163.404 662.372,163.108 643.097,165.453 642.966,164.764 642.883,164.329 647.578,162.573 650.293,162.097 653.484,161.538 657.428,162.120 660.995,162.132 "/>
	<path fill="none" stroke="#000000" stroke-width="2.00" stroke-linecap="round" stroke-linejoin="round" d="M669.666 158.818L640.869,158.419 "/>
	<ellipse fill="none" stroke="#8601AF" stroke-width="2.00" stroke-linecap="round" stroke-linejoin="round" cx="691.152" cy="1831.108" rx="27.628" ry="27.628" />
	<path fill="none" stroke="#8601AF" stroke-width="2.00" stroke-linecap="round" stroke-linejoin="round" d="M673.610 1840.244C676.171,1831.395 679.386,1813.527 681.295,1813.696 683.532,1813.892 682.440,1851.040 685.320,1851.413 688.128,1851.775 695.220,1817.466 698.129,1817.723 700.486,1817.932 701.057,1833.226 702.521,1840.976 "/>
	<text x="721.234" y="1861.466" transform="matrix(3.0055 0.0000 0.0000 3.0055 -1446.4463 -3733.1992)" style="font-family:Roboto;font-size:14.00;fill:#000000;stroke:none;">Departamento de Artes</text>
</g>
</svg>
