<?xml version="1.0" encoding="utf-8" standalone="no"?>
<!DOCTYPE svg PUBLIC "-//W3C//DTD SVG 1.1//EN" "http://www.w3.org/Graphics/SVG/1.1/DTD/svg11.dtd">
<!-- Created with Skedio (http://skedio.shturmsoft.com/) -->
<svg version="1.1" xmlns="http://www.w3.org/2000/svg" xmlns:xlink="http://www.w3.org/1999/xlink" width="565pt" height="1529pt" viewBox="0 0 565 1529">
<g id="layer1">
	<ellipse fill="none" stroke="#0247FE" stroke-width="2.00" stroke-linecap="round" stroke-linejoin="round" cx="164.078" cy="1331.215" rx="29.143" ry="29.143" transform="rotate(19.505 164.078 1331.215)"/>
	<text x="195.649" y="1381.091" transform="matrix(3.1703 0.0103 -0.0103 3.1703 -410.3635 -2999.4531)" style="font-family:Roboto;font-size:14.00;fill:#000000;stroke:none;">DAI</text>
	<path fill="none" stroke="#0247FE" stroke-width="2.00" stroke-linecap="round" stroke-linejoin="round" d="M145.542 1340.793C148.277,1331.466 151.727,1312.630 153.741,1312.815 156.100,1313.029 154.821,1352.212 157.858,1352.613 160.818,1353.007 168.417,1316.839 171.484,1317.121 173.972,1317.350 174.520,1333.483 176.037,1341.665 "/>
	<path fill="none" stroke="#000000" stroke-width="2.00" stroke-linecap="round" stroke-linejoin="round" d="M29.704 479.067C32.884,480.570 36.348,481.630 39.242,483.575 42.217,485.574 44.846,487.956 47.266,490.975 50.145,494.567 52.960,499.848 54.825,504.094 56.444,507.783 57.076,511.281 58.201,514.874 "/>
	<path fill="none" stroke="#0247FE" stroke-width="2.00" stroke-linecap="round" stroke-linejoin="round" d="M32.385 486.439C34.358,487.054 36.423,487.210 38.304,488.284 40.438,489.503 44.667,493.057 44.351,493.712 43.941,494.563 31.602,489.780 31.353,490.442 31.072,491.191 46.377,498.363 46.223,499.429 46.172,499.782 45.253,499.932 44.401,499.856 42.213,499.662 33.013,494.912 32.994,494.960 32.974,495.010 42.462,498.751 45.159,500.542 46.706,501.569 48.681,503.057 48.459,503.555 48.028,504.523 32.403,500.041 32.190,500.719 32.050,501.164 35.966,503.170 38.530,504.161 42.057,505.523 51.680,506.700 51.670,507.358 51.665,507.685 49.890,508.049 48.418,508.037 45.286,508.013 35.660,504.684 33.744,504.735 33.275,504.748 32.903,504.829 32.873,504.982 32.837,505.162 33.361,505.511 33.870,505.823 35.056,506.551 37.833,507.768 40.310,508.525 43.468,509.490 51.422,510.492 51.393,510.717 51.355,511.013 32.129,508.299 31.985,508.986 31.893,509.418 36.554,511.264 39.259,511.792 42.438,512.412 46.393,511.905 49.960,511.962 "/>
	<text x="195.429" y="1448.212" transform="matrix(3.1703 0.0103 -0.0103 3.1703 -409.1943 -3145.1260)" style="font-family:Roboto;font-size:14.00;fill:#000000;stroke:none;">Cantina</text>
	<text x="234.310" y="1503.793" transform="matrix(-0.0076 1.4350 -1.4350 -0.0076 2393.9854 1178.9965)" style="font-family:Roboto;font-size:14.00;fill:#D0EA2B;stroke:none;"></text>
	<path fill="none" stroke="#000000" stroke-width="2.00" stroke-linecap="round" stroke-linejoin="round" d="M216.091 1149.887L533.884,1151.571 539.838,27.711 31.791,25.020 25.837,1148.879 200.832,1149.806 "/>
	<path fill="none" stroke="#000000" stroke-width="2.00" stroke-linecap="round" stroke-linejoin="round" d="M385.832 1150.786L213.515,1149.872 "/>
	<path fill="none" stroke="#000000" stroke-width="2.00" stroke-linecap="round" stroke-linejoin="round" d="M364.309 1136.271L256.310,1135.699 "/>
	<path fill="none" stroke="#000000" stroke-width="2.00" stroke-linecap="round" stroke-linejoin="round" d="M364.385 1121.871L256.387,1121.300 "/>
	<path fill="none" stroke="#000000" stroke-width="2.00" stroke-linecap="round" stroke-linejoin="round" d="M364.462 1107.471L256.463,1106.900 "/>
	<path fill="none" stroke="#000000" stroke-width="2.00" stroke-linecap="round" stroke-linejoin="round" d="M364.538 1093.072L256.539,1092.500 "/>
	<path fill="none" stroke="#000000" stroke-width="2.00" stroke-linecap="round" stroke-linejoin="round" d="M364.614 1078.672L256.616,1078.100 "/>
	<path fill="none" stroke="#000000" stroke-width="2.00" stroke-linecap="round" stroke-linejoin="round" d="M364.690 1064.272L256.692,1063.700 "/>
	<path fill="none" stroke="#000000" stroke-width="2.00" stroke-linecap="round" stroke-linejoin="round" d="M364.767 1049.873L256.768,1049.300 "/>
	<path fill="none" stroke="#000000" stroke-width="2.00" stroke-linecap="round" stroke-linejoin="round" d="M172.696 609.649L28.698,608.886 "/>
	<path fill="none" stroke="#000000" stroke-width="2.00" stroke-linecap="round" stroke-linejoin="round" d="M208.695 609.970L205.849,1147.179 "/>
	<path fill="none" stroke="#000000" stroke-width="2.00" stroke-linecap="round" stroke-linejoin="round" d="M207.294 609.832L136.697,609.458 "/>
	<path fill="none" stroke="#000000" stroke-width="2.00" stroke-linecap="round" stroke-linejoin="round" d="M62.790 969.071L62.218,1077.070 26.219,1076.879 26.791,968.881 Z"/>
	<path fill="none" stroke="#000000" stroke-width="2.00" stroke-linecap="round" stroke-linejoin="round" d="M58.566 515.441L29.766,515.289 "/>
	<path fill="none" stroke="#000000" stroke-width="2.00" stroke-linecap="round" stroke-linejoin="round" d="M31.802 83.073C34.982,84.576 38.445,85.635 41.341,87.581 44.315,89.579 46.944,91.962 49.364,94.980 52.244,98.572 55.058,103.853 56.923,108.100 58.542,111.789 59.174,115.286 60.299,118.879 "/>
	<path fill="none" stroke="#D0EA2B" stroke-width="2.00" stroke-linecap="round" stroke-linejoin="round" d="M34.483 90.444C36.456,91.060 38.521,91.216 40.402,92.289 42.535,93.509 46.764,97.062 46.449,97.718 46.039,98.568 33.700,93.785 33.451,94.447 33.169,95.196 48.475,102.368 48.321,103.435 48.270,103.787 47.351,103.938 46.499,103.861 44.311,103.667 35.111,98.917 35.092,98.965 35.072,99.016 44.560,102.756 47.257,104.547 48.804,105.575 50.778,107.062 50.557,107.561 50.126,108.528 34.501,104.046 34.288,104.724 34.148,105.169 38.064,107.176 40.628,108.166 44.154,109.528 53.778,110.705 53.768,111.364 53.763,111.691 51.988,112.055 50.516,112.043 47.384,112.018 37.758,108.690 35.843,108.741 35.373,108.754 35.001,108.835 34.971,108.987 34.935,109.168 35.459,109.516 35.968,109.829 37.155,110.557 39.931,111.774 42.407,112.531 45.565,113.495 53.520,114.497 53.491,114.722 53.452,115.018 34.227,112.304 34.082,112.991 33.992,113.424 38.651,115.270 41.357,115.798 44.536,116.418 48.491,115.911 52.058,115.968 "/>
	<path fill="none" stroke="#000000" stroke-width="2.00" stroke-linecap="round" stroke-linejoin="round" d="M60.663 119.447L31.864,119.294 "/>
	<path fill="none" stroke="#000000" stroke-width="2.00" stroke-linecap="round" stroke-linejoin="round" d="M227.435 1149.947L155.436,1149.565 "/>
	<path fill="none" stroke="#FE2712" stroke-width="12.50" stroke-linecap="round" stroke-linejoin="round" d="M44.456 996.038C46.785,996.128 50.330,995.230 51.443,996.311 52.344,997.186 52.325,999.877 51.759,1000.877 51.295,1001.699 50.173,1002.144 49.008,1002.286 47.211,1002.506 43.565,1000.374 41.848,1000.607 40.802,1000.749 39.938,1001.286 39.455,1001.916 39.014,1002.491 38.858,1003.293 38.918,1004.125 39.000,1005.262 39.399,1007.501 40.503,1008.071 42.025,1008.855 46.636,1005.296 48.349,1006.180 49.891,1006.975 50.979,1010.880 50.781,1012.245 50.668,1013.032 50.223,1013.580 49.436,1013.950 47.830,1014.704 42.069,1012.976 40.388,1013.730 39.529,1014.115 39.035,1014.705 38.858,1015.535 38.579,1016.835 39.088,1020.243 40.467,1021.113 42.250,1022.238 48.391,1018.612 50.043,1019.525 51.021,1020.066 51.301,1021.626 51.356,1022.663 51.408,1023.647 51.325,1025.001 50.481,1025.593 48.949,1026.666 42.439,1024.296 40.434,1025.014 39.380,1025.392 38.560,1026.037 38.387,1026.904 38.139,1028.140 39.269,1031.247 40.753,1032.059 42.625,1033.083 48.051,1030.308 49.687,1030.807 50.434,1031.035 50.958,1031.467 51.087,1032.065 51.282,1032.968 50.469,1035.208 49.364,1035.994 48.002,1036.965 44.675,1035.923 42.853,1036.516 41.349,1037.006 39.067,1038.079 39.054,1038.842 39.043,1039.546 40.851,1040.540 42.206,1040.921 44.135,1041.464 48.480,1039.898 49.847,1040.656 50.608,1041.078 50.978,1041.881 51.031,1042.709 51.104,1043.884 50.421,1046.319 49.188,1047.101 47.616,1048.098 43.316,1046.379 41.453,1046.766 40.310,1047.004 39.052,1047.337 38.832,1048.043 38.558,1048.920 39.803,1051.128 41.043,1051.974 42.603,1053.037 46.469,1052.208 48.113,1052.957 49.192,1053.448 50.315,1054.178 50.430,1054.974 50.552,1055.831 49.579,1057.401 48.509,1057.973 46.997,1058.784 43.153,1057.305 41.393,1057.845 40.178,1058.217 38.699,1059.067 38.623,1059.795 38.550,1060.501 39.678,1061.639 40.800,1062.133 42.682,1062.960 49.516,1061.336 49.795,1062.198 50.052,1062.987 45.744,1065.185 43.719,1066.679 "/>
	<path stroke="none" fill="#FE2712" d=""/>
	<path fill="none" stroke="#FE2712" stroke-width="12.50" stroke-linecap="round" stroke-linejoin="round" d="M51.506 1003.752C48.136,999.677 41.947,994.039 41.395,991.527 41.188,990.582 41.513,989.478 41.969,989.355 42.754,989.144 45.503,992.010 46.671,994.065 48.113,996.605 49.924,1003.130 49.169,1003.907 48.836,1004.248 47.817,1003.923 47.249,1003.477 46.359,1002.778 45.349,1000.855 45.110,999.149 44.802,996.944 46.908,991.331 46.565,991.215 46.260,991.112 44.805,996.454 43.697,996.871 43.021,997.126 41.801,996.606 41.497,995.991 41.071,995.125 41.961,992.663 42.766,991.487 43.516,990.391 45.112,989.076 46.007,989.043 46.614,989.021 47.506,990.130 47.573,990.052 47.675,989.932 45.582,987.818 44.586,986.700 "/>
	<path fill="none" stroke="#FE2712" stroke-width="12.50" stroke-linecap="round" stroke-linejoin="round" d="M49.925 996.677C50.650,994.577 51.961,992.306 52.098,990.376 52.211,988.794 51.987,986.965 51.250,985.973 50.625,985.132 49.254,984.411 48.396,984.476 47.624,984.536 46.743,985.074 46.306,986.018 45.355,988.069 46.838,998.262 47.134,998.267 47.349,998.271 48.050,993.553 47.810,991.779 47.634,990.476 47.136,989.252 46.528,988.501 46.067,987.929 45.641,987.534 44.831,987.379 43.272,987.079 38.327,989.788 37.444,988.910 36.725,988.195 38.104,985.634 38.434,983.996 "/>
	<path stroke="none" fill="#FE2712" d=""/>
	<path stroke="none" fill="#FE2712" d=""/>
	<path stroke="none" fill="#FE2712" d=""/>
	<path stroke="none" fill="#FE2712" d=""/>
	<path stroke="none" fill="#FE2712" d=""/>
	<path stroke="none" fill="#FE2712" d=""/>
	<path stroke="none" fill="#FE2712" d=""/>
	<path stroke="none" fill="#FE2712" d=""/>
	<path stroke="none" fill="#FE2712" d=""/>
	<path fill="none" stroke="#FE2712" stroke-width="12.50" stroke-linecap="round" stroke-linejoin="round" d="M52.098 981.226C51.991,981.648 51.883,982.070 51.775,982.492 "/>
	<path stroke="none" fill="#FE2712" d=""/>
	<ellipse fill="none" stroke="#FE2712" stroke-width="2.00" stroke-linecap="round" stroke-linejoin="round" cx="163.814" cy="1412.452" rx="29.143" ry="29.143" transform="rotate(19.505 163.814 1412.452)"/>
	<path fill="none" stroke="#FE2712" stroke-width="2.00" stroke-linecap="round" stroke-linejoin="round" d="M145.279 1422.030C148.011,1412.703 151.462,1393.867 153.476,1394.050 155.836,1394.266 154.557,1433.447 157.595,1433.850 160.554,1434.242 168.152,1398.075 171.220,1398.357 173.706,1398.587 174.256,1414.721 175.774,1422.901 "/>
	<ellipse fill="none" stroke="#FFFF33" stroke-width="2.00" stroke-linecap="round" stroke-linejoin="round" cx="164.311" cy="1260.134" rx="29.143" ry="29.143" transform="rotate(19.505 164.311 1260.134)"/>
	<path fill="none" stroke="#FFFF33" stroke-width="2.00" stroke-linecap="round" stroke-linejoin="round" d="M145.775 1269.710C148.507,1260.385 151.959,1241.549 153.973,1241.733 156.333,1241.948 155.053,1281.130 158.089,1281.532 161.050,1281.923 168.648,1245.759 171.716,1246.039 174.203,1246.269 174.751,1262.403 176.269,1270.583 "/>
	<ellipse fill="none" stroke="#66B032" stroke-width="2.00" stroke-linecap="round" stroke-linejoin="round" cx="164.542" cy="1189.053" rx="29.143" ry="29.143" transform="rotate(19.505 164.542 1189.053)"/>
	<path fill="none" stroke="#66B032" stroke-width="2.00" stroke-linecap="round" stroke-linejoin="round" d="M146.006 1198.630C148.738,1189.303 152.191,1170.466 154.204,1170.650 156.563,1170.866 155.283,1210.047 158.321,1210.451 161.281,1210.843 168.879,1174.677 171.947,1174.957 174.435,1175.185 174.983,1191.320 176.501,1199.502 "/>
	<text x="195.913" y="1299.855" transform="matrix(3.1703 0.0103 -0.0103 3.1703 -411.7761 -2823.1465)" style="font-family:Roboto;font-size:14.00;fill:#000000;stroke:none;">Banheiros</text>
	<text x="196.177" y="1218.619" transform="matrix(3.1703 0.0103 -0.0103 3.1703 -413.1871 -2646.8389)" style="font-family:Roboto;font-size:14.00;fill:#000000;stroke:none;">Laboratórios</text>
	<path fill="none" stroke="#FE2712" stroke-width="12.50" stroke-linecap="round" stroke-linejoin="round" d="M55.553 976.233L55.133,1055.432 33.533,1055.318 33.953,976.119 Z"/>
	<path fill="none" stroke="#FE2712" stroke-width="12.50" stroke-linecap="round" stroke-linejoin="round" d="M55.171 1048.233L55.057,1069.832 33.457,1069.717 33.571,1048.118 Z"/>
	<path fill="none" stroke="#000000" stroke-width="2.00" stroke-linecap="round" stroke-linejoin="round" d="M30.582 313.470C33.761,314.972 37.225,316.032 40.120,317.978 43.095,319.976 45.723,322.358 48.143,325.377 51.023,328.969 53.838,334.250 55.702,338.497 57.321,342.185 57.953,345.683 59.079,349.276 "/>
	<path fill="none" stroke="#66B032" stroke-width="2.00" stroke-linecap="round" stroke-linejoin="round" d="M33.262 320.841C35.235,321.456 37.300,321.612 39.181,322.686 41.315,323.906 45.544,327.459 45.229,328.114 44.818,328.965 32.480,324.182 32.231,324.844 31.949,325.593 47.255,332.765 47.100,333.832 47.049,334.184 46.130,334.334 45.279,334.258 43.090,334.064 33.890,329.314 33.871,329.363 33.851,329.413 43.340,333.153 46.036,334.944 47.583,335.971 49.558,337.459 49.336,337.957 48.906,338.925 33.281,334.443 33.067,335.121 32.928,335.566 36.843,337.572 39.407,338.563 42.934,339.925 52.557,341.102 52.547,341.761 52.542,342.087 50.768,342.451 49.296,342.440 46.163,342.415 36.537,339.086 34.622,339.137 34.152,339.150 33.780,339.232 33.750,339.383 33.714,339.564 34.238,339.913 34.748,340.226 35.934,340.954 38.710,342.170 41.186,342.927 44.345,343.891 52.299,344.894 52.270,345.119 52.232,345.415 33.006,342.701 32.862,343.388 32.771,343.820 37.431,345.666 40.137,346.194 43.316,346.814 47.270,346.308 50.837,346.364 "/>
	<path fill="none" stroke="#000000" stroke-width="2.00" stroke-linecap="round" stroke-linejoin="round" d="M59.443 349.844L30.643,349.691 "/>
	<text x="296.200" y="932.329" transform="matrix(3.4737 0.0000 0.0000 3.4737 -732.7119 -2306.3083)" style="font-family:Roboto;font-size:14.00;fill:#000000;stroke:none;">Bloco E</text>
	<text x="296.200" y="975.529" transform="matrix(3.4737 0.0000 0.0000 3.4737 -732.7119 -2413.1726)" style="font-family:Roboto;font-size:14.00;fill:#000000;stroke:none;">Térreo</text>
</g>
</svg>
