<?xml version="1.0" encoding="utf-8" standalone="no"?>
<!DOCTYPE svg PUBLIC "-//W3C//DTD SVG 1.1//EN" "http://www.w3.org/Graphics/SVG/1.1/DTD/svg11.dtd">
<!-- Created with Skedio (http://skedio.shturmsoft.com/) -->
<svg version="1.1" xmlns="http://www.w3.org/2000/svg" xmlns:xlink="http://www.w3.org/1999/xlink" width="687pt" height="1154pt" viewBox="0 0 687 1154">
<g id="layer1">
	<ellipse fill="none" stroke="#0392CE" stroke-width="2.00" stroke-linecap="round" stroke-linejoin="round" cx="86.341" cy="886.793" rx="32.472" ry="32.472" transform="rotate(19.623 86.341 886.793)"/>
	<text x="121.518" y="920.765" transform="matrix(3.5325 0.0115 -0.0115 3.5325 -297.1443 -2333.1924)" style="font-family:Roboto;font-size:14.00;fill:#000000;stroke:none;">Departamento </text>
	<path fill="none" stroke="#0392CE" stroke-width="2.00" stroke-linecap="round" stroke-linejoin="round" d="M65.688 897.464C68.734,887.072 72.580,866.084 74.824,866.291 77.452,866.529 76.026,910.187 79.411,910.634 82.708,911.073 91.175,870.774 94.593,871.088 97.364,871.343 97.976,889.319 99.666,898.436 "/>
	<ellipse fill="none" stroke="#008000" stroke-width="2.00" stroke-linecap="round" stroke-linejoin="round" cx="86.600" cy="807.593" rx="32.472" ry="32.472" transform="rotate(19.623 86.600 807.593)"/>
	<path fill="none" stroke="#008000" stroke-width="2.00" stroke-linecap="round" stroke-linejoin="round" d="M65.947 818.262C68.991,807.872 72.838,786.885 75.081,787.090 77.711,787.329 76.285,830.986 79.667,831.435 82.967,831.871 91.432,791.575 94.851,791.888 97.622,792.144 98.233,810.120 99.924,819.235 "/>
	<ellipse fill="none" stroke="#66B032" stroke-width="2.00" stroke-linecap="round" stroke-linejoin="round" cx="86.858" cy="728.392" rx="32.472" ry="32.472" transform="rotate(19.623 86.858 728.392)"/>
	<path fill="none" stroke="#66B032" stroke-width="2.00" stroke-linecap="round" stroke-linejoin="round" d="M66.205 739.063C69.249,728.671 73.096,707.683 75.339,707.888 77.967,708.128 76.541,751.785 79.926,752.235 83.225,752.671 91.691,712.374 95.109,712.687 97.880,712.941 98.491,730.919 100.183,740.035 "/>
	<text x="121.812" y="844.650" transform="matrix(3.5325 0.0115 -0.0115 3.5325 -298.7662 -2140.4380)" style="font-family:Roboto;font-size:14.00;fill:#000000;stroke:none;">Sala de Judô</text>
	<text x="122.106" y="761.335" transform="matrix(3.5325 0.0115 -0.0115 3.5325 -300.4686 -1929.4504)" style="font-family:Roboto;font-size:14.00;fill:#000000;stroke:none;">Sala de Ginástica</text>
	<path fill="none" stroke="#000000" stroke-width="2.00" stroke-linecap="round" stroke-linejoin="round" d="M460.843 619.870C457.664,621.372 454.200,622.432 451.305,624.377 448.330,626.376 445.702,628.758 443.281,631.777 440.402,635.369 437.587,640.650 435.723,644.897 434.103,648.586 433.471,652.083 432.346,655.676 "/>
	<path fill="none" stroke="#FD5308" stroke-width="2.00" stroke-linecap="round" stroke-linejoin="round" d="M458.162 627.241C456.190,627.856 454.125,628.012 452.243,629.086 450.110,630.306 445.881,633.859 446.196,634.514 446.607,635.365 458.945,630.582 459.194,631.244 459.476,631.993 444.170,639.165 444.325,640.232 444.376,640.584 445.294,640.734 446.146,640.658 448.334,640.464 457.535,635.714 457.553,635.763 457.574,635.813 448.085,639.553 445.388,641.344 443.842,642.371 441.866,643.859 442.088,644.357 442.519,645.325 458.144,640.843 458.357,641.521 458.497,641.966 454.582,643.972 452.017,644.963 448.491,646.325 438.868,647.502 438.878,648.161 438.883,648.487 440.657,648.851 442.129,648.839 445.262,648.815 454.887,645.486 456.803,645.537 457.272,645.550 457.644,645.631 457.675,645.783 457.711,645.964 457.186,646.313 456.677,646.626 455.491,647.354 452.714,648.570 450.238,649.327 447.080,650.291 439.125,651.294 439.155,651.519 439.193,651.815 458.419,649.101 458.563,649.788 458.654,650.220 453.993,652.066 451.288,652.594 448.109,653.214 444.154,652.708 440.588,652.764 "/>
	<path fill="none" stroke="#000000" stroke-width="2.00" stroke-linecap="round" stroke-linejoin="round" d="M431.982 656.244L460.781,656.091 "/>
	<text x="107.200" y="551.787" transform="matrix(4.3559 0.0000 0.0000 4.3559 -359.7480 -1851.7180)" style="font-family:Roboto;font-size:14.00;fill:#000000;stroke:none;">Bloco F</text>
	<text x="107.200" y="605.957" transform="matrix(4.3559 0.0000 0.0000 4.3559 -359.7480 -2033.5068)" style="font-family:Roboto;font-size:14.00;fill:#000000;stroke:none;">Térreo</text>
	<path fill="none" stroke="#000000" stroke-width="2.00" stroke-linecap="round" stroke-linejoin="round" d="M25.247 371.612L460.000,371.612 460.000,681.000 25.247,681.000 Z"/>
	<path fill="none" stroke="#000000" stroke-width="2.00" stroke-linecap="round" stroke-linejoin="round" d="M481.600 587.400L481.600,652.200 "/>
	<path fill="none" stroke="#000000" stroke-width="2.00" stroke-linecap="round" stroke-linejoin="round" d="M474.400 587.400L474.400,652.200 "/>
	<path fill="none" stroke="#000000" stroke-width="2.00" stroke-linecap="round" stroke-linejoin="round" d="M467.200 587.400L467.200,652.200 "/>
	<path fill="none" stroke="#000000" stroke-width="2.00" stroke-linecap="round" stroke-linejoin="round" d="M503.200 587.400L503.200,652.200 "/>
	<path fill="none" stroke="#000000" stroke-width="2.00" stroke-linecap="round" stroke-linejoin="round" d="M496.000 587.400L496.000,652.200 "/>
	<path fill="none" stroke="#000000" stroke-width="2.00" stroke-linecap="round" stroke-linejoin="round" d="M488.800 587.400L488.800,652.200 "/>
	<path fill="none" stroke="#000000" stroke-width="2.00" stroke-linecap="round" stroke-linejoin="round" d="M524.800 587.400L524.800,652.200 "/>
	<path fill="none" stroke="#000000" stroke-width="2.00" stroke-linecap="round" stroke-linejoin="round" d="M517.600 587.400L517.600,652.200 "/>
	<path fill="none" stroke="#000000" stroke-width="2.00" stroke-linecap="round" stroke-linejoin="round" d="M510.400 587.400L510.400,652.200 "/>
	<path fill="none" stroke="#000000" stroke-width="2.00" stroke-linecap="round" stroke-linejoin="round" d="M539.200 587.400L539.200,652.200 "/>
	<path fill="none" stroke="#000000" stroke-width="2.00" stroke-linecap="round" stroke-linejoin="round" d="M532.000 587.400L532.000,652.200 "/>
	<path fill="none" stroke="#000000" stroke-width="2.00" stroke-linecap="round" stroke-linejoin="round" d="M524.800 587.400L524.800,652.200 "/>
	<path fill="none" stroke="#000000" stroke-width="2.00" stroke-linecap="round" stroke-linejoin="round" d="M553.600 587.400L553.600,652.200 "/>
	<path fill="none" stroke="#000000" stroke-width="2.00" stroke-linecap="round" stroke-linejoin="round" d="M546.400 587.400L546.400,652.200 "/>
	<path fill="none" stroke="#000000" stroke-width="2.00" stroke-linecap="round" stroke-linejoin="round" d="M539.200 587.400L539.200,652.200 "/>
	<path fill="none" stroke="#000000" stroke-width="2.00" stroke-linecap="round" stroke-linejoin="round" d="M661.600 321.000L35.200,321.000 "/>
	<path fill="none" stroke="#000000" stroke-width="2.00" stroke-linecap="round" stroke-linejoin="round" d="M35.200 25.800L35.200,321.000 "/>
	<path fill="none" stroke="#000000" stroke-width="2.00" stroke-linecap="round" stroke-linejoin="round" d="M460.843 620.244C457.664,618.741 454.200,617.681 451.305,615.736 448.330,613.737 445.702,611.355 443.281,608.336 440.402,604.745 437.587,599.464 435.723,595.217 434.103,591.528 433.471,588.031 432.346,584.438 "/>
	<path fill="none" stroke="#FD5308" stroke-width="2.00" stroke-linecap="round" stroke-linejoin="round" d="M458.162 612.873C456.190,612.257 454.125,612.101 452.243,611.027 450.110,609.808 445.881,606.254 446.196,605.599 446.607,604.748 458.945,609.531 459.194,608.869 459.476,608.120 444.170,600.949 444.325,599.882 444.376,599.529 445.294,599.380 446.146,599.456 448.334,599.650 457.535,604.400 457.553,604.351 457.574,604.301 448.085,600.560 445.388,598.769 443.842,597.742 441.866,596.254 442.088,595.756 442.519,594.788 458.144,599.270 458.357,598.593 458.497,598.147 454.582,596.141 452.017,595.151 448.491,593.788 438.868,592.612 438.878,591.953 438.883,591.626 440.657,591.262 442.129,591.274 445.262,591.298 454.887,594.627 456.803,594.576 457.272,594.563 457.644,594.482 457.675,594.330 457.711,594.149 457.186,593.801 456.677,593.488 455.491,592.760 452.714,591.543 450.238,590.786 447.080,589.822 439.125,588.820 439.155,588.594 439.193,588.298 458.419,591.013 458.563,590.326 458.654,589.893 453.993,588.047 451.288,587.520 448.109,586.899 444.154,587.406 440.588,587.349 "/>
	<path fill="none" stroke="#000000" stroke-width="2.00" stroke-linecap="round" stroke-linejoin="round" d="M431.982 583.870L460.781,584.023 "/>
	<path fill="none" stroke="#000000" stroke-width="2.00" stroke-linecap="round" stroke-linejoin="round" d="M582.400 335.400L661.600,335.400 "/>
	<path fill="none" stroke="#000000" stroke-width="2.00" stroke-linecap="round" stroke-linejoin="round" d="M582.400 328.200L661.600,328.200 "/>
	<path fill="none" stroke="#000000" stroke-width="2.00" stroke-linecap="round" stroke-linejoin="round" d="M582.400 349.800L661.600,349.800 "/>
	<path fill="none" stroke="#000000" stroke-width="2.00" stroke-linecap="round" stroke-linejoin="round" d="M582.400 342.600L661.600,342.600 "/>
	<path fill="none" stroke="#000000" stroke-width="2.00" stroke-linecap="round" stroke-linejoin="round" d="M661.600 364.200L582.400,364.200 "/>
	<path fill="none" stroke="#000000" stroke-width="2.00" stroke-linecap="round" stroke-linejoin="round" d="M661.600 357.000L582.400,357.000 "/>
	<path fill="none" stroke="#000000" stroke-width="2.00" stroke-linecap="round" stroke-linejoin="round" d="M661.600 378.600L582.400,378.600 "/>
	<path fill="none" stroke="#000000" stroke-width="2.00" stroke-linecap="round" stroke-linejoin="round" d="M661.600 371.400L582.400,371.400 "/>
	<path fill="none" stroke="#000000" stroke-width="2.00" stroke-linecap="round" stroke-linejoin="round" d="M661.600 393.000L582.400,393.000 "/>
	<path fill="none" stroke="#000000" stroke-width="2.00" stroke-linecap="round" stroke-linejoin="round" d="M661.600 385.800L582.400,385.800 "/>
	<path fill="none" stroke="#000000" stroke-width="2.00" stroke-linecap="round" stroke-linejoin="round" d="M661.600 407.400L582.400,407.400 "/>
	<path fill="none" stroke="#000000" stroke-width="2.00" stroke-linecap="round" stroke-linejoin="round" d="M661.600 400.200L582.400,400.200 "/>
	<path fill="none" stroke="#000000" stroke-width="2.00" stroke-linecap="round" stroke-linejoin="round" d="M661.600 321.000L661.600,25.800 "/>
	<path fill="none" stroke="#000000" stroke-width="2.00" stroke-linecap="round" stroke-linejoin="round" d="M661.600 25.800L35.200,25.800 "/>
	<path fill="none" stroke="#000000" stroke-width="2.00" stroke-linecap="round" stroke-linejoin="round" d="M532.000 321.000L532.000,234.600 "/>
	<path fill="none" stroke="#000000" stroke-width="2.00" stroke-linecap="round" stroke-linejoin="round" d="M352.000 321.000L352.000,126.600 "/>
	<path fill="none" stroke="#000000" stroke-width="2.00" stroke-linecap="round" stroke-linejoin="round" d="M532.843 245.470C529.664,246.972 526.200,248.032 523.305,249.977 520.330,251.976 517.702,254.358 515.282,257.377 512.402,260.969 509.587,266.250 507.723,270.497 506.104,274.186 505.472,277.683 504.346,281.276 "/>
	<path fill="none" stroke="#8601AF" stroke-width="2.00" stroke-linecap="round" stroke-linejoin="round" d="M530.163 252.841C528.190,253.456 526.125,253.612 524.243,254.686 522.110,255.906 517.881,259.459 518.196,260.114 518.607,260.965 530.945,256.182 531.194,256.844 531.476,257.593 516.170,264.765 516.325,265.831 516.376,266.184 517.295,266.334 518.146,266.258 520.334,266.064 529.535,261.314 529.554,261.363 529.574,261.413 520.085,265.153 517.389,266.944 515.842,267.971 513.866,269.459 514.089,269.957 514.519,270.925 530.144,266.443 530.357,267.121 530.497,267.566 526.582,269.572 524.018,270.563 520.491,271.925 510.868,273.102 510.878,273.761 510.883,274.087 512.657,274.451 514.130,274.439 517.262,274.415 526.888,271.086 528.803,271.137 529.273,271.150 529.644,271.232 529.675,271.383 529.711,271.564 529.187,271.913 528.677,272.226 527.491,272.954 524.715,274.170 522.239,274.927 519.080,275.891 511.126,276.894 511.155,277.119 511.193,277.415 530.419,274.701 530.563,275.388 530.654,275.820 525.994,277.666 523.288,278.194 520.109,278.814 516.155,278.308 512.588,278.364 "/>
	<path fill="none" stroke="#000000" stroke-width="2.00" stroke-linecap="round" stroke-linejoin="round" d="M503.982 281.844L532.782,281.691 "/>
	<path fill="none" stroke="#000000" stroke-width="2.00" stroke-linecap="round" stroke-linejoin="round" d="M532.000 234.600L352.000,234.600 "/>
	<path fill="none" stroke="#000000" stroke-width="2.00" stroke-linecap="round" stroke-linejoin="round" d="M352.843 187.870C349.664,189.372 346.200,190.432 343.305,192.378 340.330,194.376 337.702,196.758 335.281,199.777 332.402,203.369 329.587,208.650 327.722,212.897 326.103,216.586 325.471,220.083 324.346,223.676 "/>
	<path fill="none" stroke="#0392CE" stroke-width="2.00" stroke-linecap="round" stroke-linejoin="round" d="M350.162 195.241C348.190,195.856 346.125,196.012 344.243,197.086 342.110,198.306 337.881,201.859 338.196,202.514 338.606,203.365 350.945,198.582 351.194,199.244 351.476,199.993 336.170,207.165 336.325,208.232 336.376,208.584 337.294,208.734 338.146,208.658 340.334,208.464 349.535,203.714 349.553,203.763 349.574,203.813 340.085,207.553 337.388,209.344 335.842,210.371 333.866,211.859 334.088,212.357 334.519,213.325 350.144,208.843 350.357,209.521 350.497,209.966 346.582,211.972 344.017,212.963 340.491,214.325 330.868,215.502 330.878,216.161 330.883,216.487 332.657,216.851 334.129,216.839 337.262,216.815 346.887,213.486 348.803,213.537 349.272,213.550 349.644,213.632 349.675,213.783 349.711,213.964 349.186,214.313 348.677,214.626 347.491,215.354 344.714,216.570 342.238,217.327 339.080,218.292 331.125,219.294 331.155,219.519 331.193,219.815 350.419,217.101 350.563,217.788 350.654,218.220 345.993,220.066 343.288,220.594 340.109,221.214 336.154,220.708 332.588,220.764 "/>
	<path fill="none" stroke="#000000" stroke-width="2.00" stroke-linecap="round" stroke-linejoin="round" d="M323.982 224.244L352.781,224.091 "/>
	<path fill="none" stroke="#000000" stroke-width="2.00" stroke-linecap="round" stroke-linejoin="round" d="M352.843 188.244C349.664,186.741 346.200,185.681 343.305,183.736 340.330,181.737 337.702,179.355 335.281,176.336 332.402,172.745 329.587,167.464 327.722,163.217 326.103,159.528 325.471,156.031 324.346,152.438 "/>
	<path fill="none" stroke="#0392CE" stroke-width="2.00" stroke-linecap="round" stroke-linejoin="round" d="M350.162 180.873C348.190,180.257 346.125,180.101 344.243,179.027 342.110,177.808 337.881,174.254 338.196,173.599 338.606,172.748 350.945,177.531 351.194,176.869 351.476,176.120 336.170,168.949 336.325,167.882 336.376,167.529 337.294,167.380 338.146,167.456 340.334,167.650 349.535,172.400 349.553,172.351 349.574,172.301 340.085,168.560 337.388,166.769 335.842,165.743 333.866,164.254 334.088,163.756 334.519,162.788 350.144,167.270 350.357,166.593 350.497,166.147 346.582,164.141 344.017,163.151 340.491,161.788 330.868,160.612 330.878,159.953 330.883,159.626 332.657,159.262 334.129,159.274 337.262,159.298 346.887,162.627 348.803,162.576 349.272,162.563 349.644,162.482 349.675,162.330 349.711,162.149 349.186,161.801 348.677,161.488 347.491,160.760 344.714,159.543 342.238,158.786 339.080,157.822 331.125,156.820 331.155,156.594 331.193,156.298 350.419,159.013 350.563,158.326 350.654,157.893 345.993,156.047 343.288,155.520 340.109,154.899 336.154,155.406 332.588,155.349 "/>
	<path fill="none" stroke="#000000" stroke-width="2.00" stroke-linecap="round" stroke-linejoin="round" d="M323.982 151.870L352.781,152.023 "/>
	<path fill="none" stroke="#000000" stroke-width="2.00" stroke-linecap="round" stroke-linejoin="round" d="M352.000 126.600L35.200,126.600 "/>
	<path fill="none" stroke="#000000" stroke-width="2.00" stroke-linecap="round" stroke-linejoin="round" d="M35.200 47.400L215.200,47.400 "/>
	<path fill="none" stroke="#000000" stroke-width="2.00" stroke-linecap="round" stroke-linejoin="round" d="M215.200 47.400L215.200,126.600 "/>
	<path fill="none" stroke="#000000" stroke-width="2.00" stroke-linecap="round" stroke-linejoin="round" d="M128.800 47.400L128.800,126.600 "/>
	<path fill="none" stroke="#000000" stroke-width="2.00" stroke-linecap="round" stroke-linejoin="round" d="M107.200 54.600L128.800,54.600 128.800,119.400 107.200,119.400 Z"/>
	<path fill="none" stroke="#000000" stroke-width="2.00" stroke-linecap="round" stroke-linejoin="round" d="M193.600 54.600L215.200,54.600 215.200,119.400 193.600,119.400 Z"/>
	<path fill="none" stroke="#66B032" stroke-width="10.50" stroke-linecap="round" stroke-linejoin="round" d="M200.800 61.800L208.000,61.800 208.000,112.200 200.800,112.200 Z"/>
	<path fill="none" stroke="#008000" stroke-width="10.50" stroke-linecap="round" stroke-linejoin="round" d="M114.400 61.800L121.600,61.800 121.600,112.200 114.400,112.200 Z"/>
	<path fill="none" stroke="#FFFFFF" stroke-width="16.00" stroke-linecap="round" stroke-linejoin="round" d="M229.600 83.400L71.200,83.400 "/>
	<path fill="none" stroke="#FFFFFF" stroke-width="13.50" stroke-linecap="round" stroke-linejoin="round" d="M229.600 83.400L107.200,83.400 "/>
	<path fill="none" stroke="#FFFFFF" stroke-width="13.50" stroke-linecap="round" stroke-linejoin="round" d="M222.400 90.600L92.800,90.600 "/>
	<path fill="none" stroke="#B04300" stroke-width="11.00" stroke-linecap="round" stroke-linejoin="round" d="M506.800 454.200L571.600,454.200 571.600,519.000 506.800,519.000 Z"/>
	<ellipse fill="none" stroke="#66B032" stroke-width="11.00" stroke-linecap="round" stroke-linejoin="round" cx="539.200" cy="486.600" rx="23.143" ry="23.143" />
	<ellipse fill="none" stroke="#FF670A" stroke-width="2.00" stroke-linecap="round" stroke-linejoin="round" cx="86.341" cy="1009.193" rx="32.472" ry="32.472" transform="rotate(19.623 86.341 1009.193)"/>
	<path fill="none" stroke="#FF670A" stroke-width="2.00" stroke-linecap="round" stroke-linejoin="round" d="M65.688 1019.864C68.734,1009.472 72.580,988.484 74.824,988.691 77.452,988.929 76.026,1032.587 79.411,1033.034 82.708,1033.473 91.175,993.174 94.593,993.488 97.364,993.743 97.976,1011.719 99.666,1020.836 "/>
	<text x="121.518" y="1043.165" transform="matrix(3.5325 0.0115 -0.0115 3.5325 -295.7362 -2643.1646)" style="font-family:Roboto;font-size:14.00;fill:#000000;stroke:none;">Quadra // Fornão</text>
	<text x="121.518" y="963.965" transform="matrix(3.5325 0.0115 -0.0115 3.5325 -296.6475 -2442.5945)" style="font-family:Roboto;font-size:14.00;fill:#000000;stroke:none;">de Educação Física</text>
	<ellipse fill="none" stroke="#8601AF" stroke-width="2.00" stroke-linecap="round" stroke-linejoin="round" cx="86.341" cy="1081.193" rx="32.472" ry="32.472" transform="rotate(19.623 86.341 1081.193)"/>
	<path fill="none" stroke="#8601AF" stroke-width="2.00" stroke-linecap="round" stroke-linejoin="round" d="M65.688 1091.864C68.734,1081.472 72.580,1060.484 74.824,1060.691 77.452,1060.929 76.026,1104.587 79.411,1105.034 82.708,1105.473 91.175,1065.174 94.593,1065.488 97.364,1065.743 97.976,1083.719 99.666,1092.836 "/>
	<text x="121.518" y="1115.165" transform="matrix(3.5325 0.0115 -0.0115 3.5325 -294.9077 -2825.5012)" style="font-family:Roboto;font-size:14.00;fill:#000000;stroke:none;">Academia Musculação</text>
</g>
</svg>
