<?xml version="1.0" encoding="UTF-8" standalone="no"?>
<!-- Creator: CorelDRAW X5 -->

<svg
   xmlns:dc="http://purl.org/dc/elements/1.1/"
   xmlns:cc="http://creativecommons.org/ns#"
   xmlns:rdf="http://www.w3.org/1999/02/22-rdf-syntax-ns#"
   xmlns:svg="http://www.w3.org/2000/svg"
   xmlns="http://www.w3.org/2000/svg"
   xmlns:sodipodi="http://sodipodi.sourceforge.net/DTD/sodipodi-0.dtd"
   xmlns:inkscape="http://www.inkscape.org/namespaces/inkscape"
   xml:space="preserve"
   width="36.248mm"
   height="42.153mm"
   style="shape-rendering:geometricPrecision; text-rendering:geometricPrecision; image-rendering:optimizeQuality; fill-rule:evenodd; clip-rule:evenodd"
   viewBox="0 0 3625 4215"
   version="1.1"
   id="svg55"
   sodipodi:docname="ifmt.svg"
   inkscape:version="0.92.2 (5c3e80d, 2017-08-06)"><metadata
     id="metadata59"><rdf:RDF><cc:Work
         rdf:about=""><dc:format>image/svg+xml</dc:format><dc:type
           rdf:resource="http://purl.org/dc/dcmitype/StillImage" /></cc:Work></rdf:RDF></metadata><sodipodi:namedview
     pagecolor="#ffffff"
     bordercolor="#666666"
     borderopacity="1"
     objecttolerance="10"
     gridtolerance="10"
     guidetolerance="10"
     inkscape:pageopacity="0"
     inkscape:pageshadow="2"
     inkscape:window-width="1600"
     inkscape:window-height="848"
     id="namedview57"
     showgrid="false"
     inkscape:zoom="1.4813102"
     inkscape:cx="68.50016"
     inkscape:cy="79.659212"
     inkscape:window-x="-8"
     inkscape:window-y="-8"
     inkscape:window-maximized="1"
     inkscape:current-layer="svg55" /><defs
     id="defs4"><style
       type="text/css"
       id="style2"><![CDATA[
    .fil3 {fill:black;fill-rule:nonzero}
    .fil1 {fill:#32A041;fill-rule:nonzero}
    .fil2 {fill:#C8191E;fill-rule:nonzero}
    .fil0 {fill:white;fill-rule:nonzero}
   ]]></style></defs><g
     id="Camada_x0020_1"
     transform="matrix(1.069005,0,0,1.0805186,-0.06900495,0)"><metadata
       id="CorelCorpID_0Corel-Layer" /><g
       id="_204920376"><path
         class="fil0"
         d="m 3625,4177 c 0,21 -17,38 -38,38 H 39 C 18,4215 1,4198 1,4177 V 38 C 1,17 18,0 39,0 h 3548 c 21,0 38,17 38,38 z"
         id="path7"
         inkscape:connector-curvature="0"
         style="fill:#ffffff;fill-rule:nonzero" /><g
         id="g29"><path
           class="fil1"
           d="m 2015,751 c 0,21 -17,38 -38,38 h -317 c -21,0 -38,-17 -38,-38 V 434 c 0,-21 17,-38 38,-38 h 317 c 21,0 38,17 38,38 z"
           id="path9"
           inkscape:connector-curvature="0"
           style="fill:#32a041;fill-rule:nonzero" /><path
           class="fil1"
           d="m 2488,751 c 0,21 -17,38 -38,38 h -317 c -21,0 -38,-17 -38,-38 V 434 c 0,-21 17,-38 38,-38 h 317 c 21,0 38,17 38,38 z"
           id="path11"
           inkscape:connector-curvature="0"
           style="fill:#32a041;fill-rule:nonzero" /><path
           class="fil1"
           d="m 2488,1696 c 0,21 -17,38 -38,38 h -317 c -21,0 -38,-17 -38,-38 v -317 c 0,-21 17,-38 38,-38 h 317 c 21,0 38,17 38,38 z"
           id="path13"
           inkscape:connector-curvature="0"
           style="fill:#32a041;fill-rule:nonzero" /><path
           class="fil1"
           d="m 1543,1223 c 0,21 -17,38 -38,38 h -317 c -21,0 -38,-17 -38,-38 V 906 c 0,-21 17,-38 38,-38 h 317 c 21,0 38,17 38,38 z"
           id="path15"
           inkscape:connector-curvature="0"
           style="fill:#32a041;fill-rule:nonzero" /><path
           class="fil1"
           d="m 2015,1223 c 0,21 -17,38 -38,38 h -317 c -21,0 -38,-17 -38,-38 V 906 c 0,-21 17,-38 38,-38 h 317 c 21,0 38,17 38,38 z"
           id="path17"
           inkscape:connector-curvature="0"
           style="fill:#32a041;fill-rule:nonzero" /><path
           class="fil1"
           d="m 1543,1696 c 0,21 -17,38 -38,38 h -317 c -21,0 -38,-17 -38,-38 v -317 c 0,-21 17,-38 38,-38 h 317 c 21,0 38,17 38,38 z"
           id="path19"
           inkscape:connector-curvature="0"
           style="fill:#32a041;fill-rule:nonzero" /><path
           class="fil1"
           d="m 2015,1696 c 0,21 -17,38 -38,38 h -317 c -21,0 -38,-17 -38,-38 v -317 c 0,-21 17,-38 38,-38 h 317 c 21,0 38,17 38,38 z"
           id="path21"
           inkscape:connector-curvature="0"
           style="fill:#32a041;fill-rule:nonzero" /><path
           class="fil1"
           d="m 1543,2169 c 0,21 -17,38 -38,38 h -317 c -21,0 -38,-17 -38,-38 v -317 c 0,-21 17,-38 38,-38 h 317 c 21,0 38,17 38,38 z"
           id="path23"
           inkscape:connector-curvature="0"
           style="fill:#32a041;fill-rule:nonzero" /><path
           class="fil1"
           d="m 2015,2169 c 0,21 -17,38 -38,38 h -317 c -21,0 -38,-17 -38,-38 v -317 c 0,-21 17,-38 38,-38 h 317 c 21,0 38,17 38,38 z"
           id="path25"
           inkscape:connector-curvature="0"
           style="fill:#32a041;fill-rule:nonzero" /><path
           class="fil2"
           d="m 1563,593 c 0,120 -97,217 -217,217 -120,0 -216,-97 -216,-217 0,-120 97,-217 216,-217 120,0 217,97 217,217 z"
           id="path27"
           inkscape:connector-curvature="0"
           style="fill:#c8191e;fill-rule:nonzero" /></g><g
         id="g51"><path
           class="fil3"
           d="M 734,3820 634,3558 h -2 c 2,21 3,45 3,74 v 188 h -32 v -296 h 52 l 94,244 h 2 l 95,-244 h 51 v 296 h -34 v -190 c 0,-22 1,-46 3,-71 h -2 l -101,262 h -28 z m 375,0 -7,-32 h -2 c -11,14 -22,23 -33,28 -11,5 -25,7 -41,7 -22,0 -39,-6 -52,-17 -12,-11 -19,-27 -19,-48 0,-45 36,-68 108,-70 l 38,-1 v -14 c 0,-17 -4,-30 -11,-39 -7,-8 -19,-12 -36,-12 -18,0 -39,6 -63,17 l -10,-26 c 11,-6 23,-11 36,-14 13,-3 26,-5 39,-5 26,0 46,6 59,18 13,12 19,31 19,56 v 151 h -25 z m -76,-24 c 21,0 37,-6 49,-17 12,-11 18,-27 18,-48 v -20 l -34,1 c -27,1 -46,5 -58,12 -12,7 -18,19 -18,34 0,12 4,21 11,28 7,6 18,9 31,9 z m 242,0 c 6,0 12,0 17,-1 6,-1 10,-2 13,-3 v 26 c -4,2 -9,3 -16,4 -7,1 -13,2 -19,2 -43,0 -64,-23 -64,-68 v -132 h -32 v -16 l 32,-14 14,-47 h 19 v 51 h 64 v 26 h -64 v 130 c 0,13 3,24 10,31 6,7 15,11 26,11 z m 266,-87 c 0,36 -9,64 -27,85 -18,20 -43,30 -76,30 -20,0 -37,-5 -53,-14 -15,-9 -27,-23 -36,-40 -8,-17 -13,-38 -13,-61 0,-36 9,-64 27,-84 18,-20 43,-30 75,-30 31,0 56,10 74,31 18,21 27,49 27,84 z m -169,0 c 0,28 6,50 17,65 11,15 28,22 50,22 22,0 39,-7 50,-22 11,-15 17,-36 17,-65 0,-28 -6,-50 -17,-64 -11,-15 -28,-22 -51,-22 -22,0 -39,7 -50,22 -11,14 -17,36 -17,65 z m 471,-44 h 101 v 144 c -16,5 -32,9 -48,11 -16,3 -35,4 -56,4 -45,0 -80,-13 -105,-40 -25,-27 -37,-64 -37,-112 0,-31 6,-58 19,-81 12,-23 30,-41 53,-53 23,-12 50,-18 82,-18 32,0 61,6 88,17 l -13,30 c -27,-11 -52,-17 -77,-17 -36,0 -64,11 -84,32 -20,21 -30,51 -30,89 0,40 10,70 29,91 20,21 48,31 86,31 20,0 41,-2 60,-7 v -91 h -66 v -31 z m 268,-71 c 10,0 19,1 27,2 l -5,31 c -9,-2 -17,-3 -24,-3 -18,0 -33,7 -46,22 -13,15 -19,33 -19,54 v 119 h -34 v -222 h 28 l 4,41 h 2 c 8,-14 18,-26 30,-33 12,-8 24,-12 38,-12 z m 251,115 c 0,36 -9,64 -27,85 -18,20 -43,30 -76,30 -20,0 -37,-5 -53,-14 -15,-9 -27,-23 -36,-40 -8,-17 -13,-38 -13,-61 0,-36 9,-64 27,-84 18,-20 43,-30 75,-30 31,0 56,10 74,31 18,21 27,49 27,84 z m -169,0 c 0,28 6,50 17,65 11,15 28,22 50,22 22,0 39,-7 50,-22 11,-15 17,-36 17,-65 0,-28 -6,-50 -17,-64 -11,-15 -28,-22 -51,-22 -22,0 -39,7 -50,22 -11,14 -17,36 -17,65 z m 371,51 c 0,21 -8,37 -23,48 -15,11 -37,17 -65,17 -29,0 -52,-5 -69,-14 v -31 c 11,5 22,10 34,13 12,3 24,5 35,5 18,0 31,-3 41,-8 9,-6 14,-14 14,-26 0,-9 -4,-16 -11,-22 -8,-6 -22,-13 -44,-22 -21,-8 -35,-14 -44,-20 -9,-6 -15,-12 -19,-20 -4,-7 -6,-16 -6,-26 0,-18 7,-32 22,-43 15,-10 35,-16 61,-16 24,0 47,5 70,15 l -12,27 c -22,-9 -43,-14 -61,-14 -16,0 -28,2 -36,7 -8,5 -12,12 -12,21 0,6 2,11 5,15 3,4 8,8 15,12 7,4 20,9 39,16 26,10 44,19 53,29 9,10 14,22 14,37 z m 198,0 c 0,21 -8,37 -23,48 -15,11 -37,17 -65,17 -29,0 -52,-5 -69,-14 v -31 c 11,5 22,10 34,13 12,3 24,5 35,5 18,0 31,-3 41,-8 9,-6 14,-14 14,-26 0,-9 -4,-16 -11,-22 -8,-6 -22,-13 -44,-22 -21,-8 -35,-14 -44,-20 -9,-6 -15,-12 -19,-20 -4,-7 -6,-16 -6,-26 0,-18 7,-32 22,-43 15,-10 35,-16 61,-16 24,0 47,5 70,15 l -12,27 c -22,-9 -43,-14 -61,-14 -16,0 -28,2 -36,7 -8,5 -12,12 -12,21 0,6 2,11 5,15 3,4 8,8 15,12 7,4 20,9 39,16 26,10 44,19 53,29 9,10 14,22 14,37 z m 246,-51 c 0,36 -9,64 -27,85 -18,20 -43,30 -76,30 -20,0 -37,-5 -53,-14 -15,-9 -27,-23 -36,-40 -8,-17 -13,-38 -13,-61 0,-36 9,-64 27,-84 18,-20 43,-30 75,-30 31,0 56,10 74,31 18,21 27,49 27,84 z m -169,0 c 0,28 6,50 17,65 11,15 28,22 50,22 22,0 39,-7 50,-22 11,-15 17,-36 17,-65 0,-28 -6,-50 -17,-64 -11,-15 -28,-22 -51,-22 -22,0 -39,7 -50,22 -11,14 -17,36 -17,65 z"
           id="path31"
           inkscape:connector-curvature="0"
           style="fill:#000000;fill-rule:nonzero" /><polygon
           class="fil3"
           points="393,2482 476,2482 476,2874 393,2874 "
           id="polygon33"
           style="fill:#000000;fill-rule:nonzero" /><path
           class="fil3"
           d="M 923,2874 H 817 L 646,2578 h -2 c 3,52 5,90 5,112 v 184 h -74 v -392 h 105 l 170,293 h 2 c -3,-51 -4,-87 -4,-108 v -185 h 75 z m 331,-109 c 0,35 -13,63 -38,84 -25,20 -61,31 -106,31 -42,0 -79,-8 -111,-24 v -77 c 26,12 49,20 67,25 18,5 35,7 50,7 18,0 32,-3 42,-11 10,-7 15,-17 15,-31 0,-8 -2,-14 -7,-20 -4,-6 -11,-12 -19,-17 -8,-5 -25,-14 -51,-27 -24,-11 -42,-22 -54,-32 -12,-10 -22,-22 -29,-36 -7,-14 -11,-30 -11,-48 0,-35 12,-62 35,-82 24,-20 56,-30 98,-30 20,0 40,2 58,7 19,5 38,12 58,20 l -27,65 c -21,-9 -38,-15 -52,-18 -14,-3 -27,-5 -40,-5 -16,0 -28,4 -36,11 -8,7 -13,17 -13,29 0,7 2,14 5,19 3,5 9,11 16,16 7,5 25,14 53,27 37,18 62,35 75,53 14,18 20,39 20,65 z"
           id="path35"
           inkscape:connector-curvature="0"
           style="fill:#000000;fill-rule:nonzero" /><path
           class="fil3"
           d="m 1477,2874 h -83 v -322 h -107 v -69 h 296 v 69 h -107 v 322 z m 168,0 v -392 h 83 v 392 z m 334,0 h -83 v -322 h -107 v -69 h 296 v 69 h -107 v 322 z"
           id="path37"
           inkscape:connector-curvature="0"
           style="fill:#000000;fill-rule:nonzero" /><path
           class="fil3"
           d="m 2464,2482 v 253 c 0,29 -6,54 -19,76 -13,22 -32,39 -56,50 -24,12 -53,17 -87,17 -50,0 -90,-13 -118,-39 -28,-26 -42,-61 -42,-106 v -252 h 83 v 240 c 0,30 6,52 18,66 12,14 32,21 60,21 27,0 47,-7 59,-21 12,-14 18,-36 18,-67 v -239 h 83 z"
           id="path39"
           inkscape:connector-curvature="0"
           style="fill:#000000;fill-rule:nonzero" /><path
           class="fil3"
           d="m 2715,2874 h -83 v -322 h -107 v -69 h 296 v 69 h -107 v 322 z m 512,-196 c 0,65 -16,115 -48,149 -32,35 -78,52 -138,52 -60,0 -106,-17 -138,-52 -32,-35 -48,-85 -48,-150 0,-65 16,-115 48,-149 32,-34 79,-52 139,-52 60,0 106,17 138,52 32,35 48,84 48,150 z m -286,0 c 0,44 8,77 25,99 17,22 41,33 75,33 66,0 100,-44 100,-132 0,-88 -33,-132 -99,-132 -33,0 -58,11 -75,33 -17,22 -25,55 -25,99 z"
           id="path41"
           inkscape:connector-curvature="0"
           style="fill:#000000;fill-rule:nonzero" /><polygon
           class="fil3"
           points="666,3345 666,2953 891,2953 891,3021 748,3021 748,3122 881,3122 881,3190 748,3190 748,3345 "
           id="polygon43"
           style="fill:#000000;fill-rule:nonzero" /><path
           class="fil3"
           d="M 1195,3345 H 969 v -392 h 226 v 68 h -143 v 86 h 133 v 68 h -133 v 101 h 143 z m 408,-200 c 0,64 -18,114 -55,148 -37,34 -90,51 -159,51 h -111 v -392 h 123 c 64,0 114,17 149,51 35,34 53,81 53,141 z m -86,2 c 0,-84 -37,-126 -112,-126 h -44 v 255 h 36 c 80,0 120,-43 120,-129 z m 394,197 h -226 v -392 h 226 v 68 h -143 v 86 h 133 v 68 h -133 v 101 h 143 z m 166,-218 h 27 c 26,0 46,-4 58,-13 13,-9 19,-22 19,-41 0,-19 -6,-32 -19,-40 -13,-8 -33,-12 -59,-12 h -25 v 106 z m 0,67 v 150 h -83 v -392 h 114 c 53,0 93,10 118,29 26,19 38,49 38,88 0,23 -6,44 -19,61 -13,18 -31,32 -54,42 59,88 98,145 115,171 h -92 l -94,-150 h -44 z"
           id="path45"
           inkscape:connector-curvature="0"
           style="fill:#000000;fill-rule:nonzero" /><path
           class="fil3"
           d="m 2594,3345 -28,-93 h -143 l -28,93 h -90 l 138,-393 h 102 l 139,393 z m -48,-163 c -26,-84 -41,-132 -44,-143 -3,-11 -6,-20 -7,-26 -6,23 -23,79 -51,170 h 102 z"
           id="path47"
           inkscape:connector-curvature="0"
           style="fill:#000000;fill-rule:nonzero" /><polygon
           class="fil3"
           points="2736,2953 2819,2953 2819,3276 2978,3276 2978,3345 2736,3345 "
           id="polygon49"
           style="fill:#000000;fill-rule:nonzero" /></g></g></g></svg>