<?xml version="1.0" encoding="utf-8" standalone="no"?>
<!DOCTYPE svg PUBLIC "-//W3C//DTD SVG 1.1//EN" "http://www.w3.org/Graphics/SVG/1.1/DTD/svg11.dtd">
<!-- Created with Skedio (http://skedio.shturmsoft.com/) -->
<svg version="1.1" xmlns="http://www.w3.org/2000/svg" xmlns:xlink="http://www.w3.org/1999/xlink" width="642pt" height="953pt" viewBox="0 0 642 953">
<g id="layer1">
	<path fill="none" stroke="#000000" stroke-width="2.00" stroke-linecap="round" stroke-linejoin="round" d="M609.000 730.600L25.800,730.600 "/>
	<path fill="none" stroke="#000000" stroke-width="2.00" stroke-linecap="round" stroke-linejoin="round" d="M609.000 730.600L616.200,25.000 "/>
	<path fill="none" stroke="#000000" stroke-width="2.00" stroke-linecap="round" stroke-linejoin="round" d="M616.200 25.000L27.172,25.000 "/>
	<path fill="none" stroke="#000000" stroke-width="2.00" stroke-linecap="round" stroke-linejoin="round" d="M25.800 25.000L25.800,730.600 "/>
	<ellipse fill="none" stroke="#FF0013" stroke-width="2.00" stroke-linecap="round" stroke-linejoin="round" cx="236.563" cy="765.824" rx="28.025" ry="28.025" />
	<path fill="none" stroke="#FF0013" stroke-width="2.00" stroke-linecap="round" stroke-linejoin="round" d="M218.769 775.092C221.368,766.116 224.628,747.992 226.565,748.162 228.834,748.362 227.727,786.044 230.648,786.421 233.496,786.789 240.690,751.987 243.641,752.248 246.032,752.460 246.611,767.973 248.096,775.835 "/>
	<path fill="none" stroke="#000000" stroke-width="2.00" stroke-linecap="round" stroke-linejoin="round" d="M169.800 514.635L451.590,514.635 451.590,618.733 169.800,618.733 Z"/>
	<path fill="none" stroke="#000000" stroke-width="2.00" stroke-linecap="round" stroke-linejoin="round" d="M148.200 377.835L475.995,377.835 475.995,497.646 148.200,497.646 Z"/>
	<g>
		<path fill="none" stroke="#000000" stroke-width="2.00" stroke-linecap="round" stroke-linejoin="round" d="M380.225 518.439L380.304,547.786 "/>
		<path fill="none" stroke="#000000" stroke-width="2.00" stroke-linecap="round" stroke-linejoin="round" d="M380.304 547.786C377.534,546.570 374.521,545.722 371.994,544.140 369.398,542.514 367.101,540.571 364.979,538.103 362.456,535.166 359.976,530.838 358.328,527.355 356.898,524.330 356.325,521.455 355.324,518.506 "/>
	</g>
	<path fill="none" stroke="#FF0A00" stroke-width="2.00" stroke-linecap="round" stroke-linejoin="round" d="M377.927 541.737C376.210,541.244 374.417,541.128 372.777,540.257 370.916,539.268 367.221,536.372 367.491,535.831 367.839,535.127 378.583,538.981 378.795,538.435 379.035,537.817 365.700,532.016 365.827,531.137 365.869,530.847 366.665,530.717 367.405,530.774 369.306,530.919 377.324,534.767 377.340,534.727 377.357,534.685 369.096,531.671 366.743,530.214 365.393,529.380 363.668,528.168 363.857,527.756 364.225,526.957 377.819,530.541 377.998,529.982 378.117,529.615 374.705,527.990 372.472,527.192 369.402,526.094 361.040,525.190 361.045,524.648 361.047,524.379 362.585,524.068 363.863,524.067 366.582,524.066 374.960,526.742 376.622,526.686 377.029,526.673 377.352,526.604 377.378,526.478 377.407,526.329 376.950,526.046 376.506,525.792 375.471,525.200 373.053,524.217 370.898,523.612 368.150,522.839 361.239,522.067 361.262,521.882 361.294,521.638 378.001,523.743 378.121,523.177 378.198,522.819 374.139,521.332 371.788,520.915 369.024,520.426 365.595,520.870 362.498,520.847 "/>
	<g>
		<path fill="none" stroke="#000000" stroke-width="2.00" stroke-linecap="round" stroke-linejoin="round" d="M253.356 518.439L253.277,547.786 "/>
		<path fill="none" stroke="#000000" stroke-width="2.00" stroke-linecap="round" stroke-linejoin="round" d="M253.277 547.786C256.047,546.570 259.061,545.722 261.587,544.140 264.183,542.515 266.481,540.571 268.602,538.103 271.126,535.166 273.606,530.838 275.253,527.355 276.684,524.330 277.256,521.455 278.257,518.506 "/>
	</g>
	<path fill="none" stroke="#FF0A00" stroke-width="2.00" stroke-linecap="round" stroke-linejoin="round" d="M255.655 541.738C257.372,541.244 259.165,541.129 260.804,540.257 262.665,539.268 266.361,536.372 266.091,535.831 265.742,535.127 254.998,538.981 254.787,538.435 254.547,537.817 267.882,532.016 267.754,531.137 267.713,530.847 266.917,530.717 266.176,530.774 264.276,530.919 256.257,534.767 256.242,534.727 256.225,534.686 264.486,531.671 266.838,530.214 268.189,529.380 269.913,528.168 269.724,527.756 269.356,526.957 255.763,530.541 255.583,529.982 255.465,529.615 258.876,527.990 261.109,527.192 264.180,526.094 272.541,525.190 272.536,524.648 272.535,524.379 270.996,524.068 269.719,524.067 267.000,524.066 258.622,526.742 256.959,526.686 256.552,526.673 256.230,526.604 256.204,526.478 256.174,526.329 256.632,526.046 257.076,525.792 258.111,525.200 260.529,524.217 262.683,523.612 265.431,522.839 272.343,522.067 272.319,521.882 272.288,521.638 255.581,523.743 255.461,523.177 255.384,522.819 259.442,521.332 261.794,520.915 264.558,520.427 267.987,520.870 271.084,520.847 "/>
	<path fill="none" stroke="#000000" stroke-width="2.00" stroke-linecap="round" stroke-linejoin="round" d="M141.000 133.000L501.000,133.000 501.000,349.000 141.000,349.000 Z"/>
	<path fill="none" stroke="#00ACF1" stroke-width="15.00" stroke-linecap="round" stroke-linejoin="round" d="M177.000 392.200L436.200,392.200 436.200,478.600 177.000,478.600 Z"/>
	<path fill="none" stroke="#00ACF1" stroke-width="16.00" stroke-linecap="round" stroke-linejoin="round" d="M177.000 406.600L436.200,406.600 436.200,464.200 177.000,464.200 Z"/>
	<path fill="none" stroke="#00ACF1" stroke-width="16.00" stroke-linecap="round" stroke-linejoin="round" d="M162.600 392.200L465.000,392.200 465.000,485.800 162.600,485.800 Z"/>
	<path fill="none" stroke="#00ACF1" stroke-width="16.00" stroke-linecap="round" stroke-linejoin="round" d="M191.400 406.600L450.600,406.600 450.600,464.200 191.400,464.200 Z"/>
	<path fill="none" stroke="#00ACF1" stroke-width="16.00" stroke-linecap="round" stroke-linejoin="round" d="M191.400 421.000L436.200,421.000 436.200,449.800 191.400,449.800 Z"/>
	<path fill="none" stroke="#00ACF1" stroke-width="16.00" stroke-linecap="round" stroke-linejoin="round" d="M421.800 435.400L191.400,435.400 191.400,449.800 421.800,449.800 Z"/>
	<path fill="none" stroke="#00ACF1" stroke-width="16.00" stroke-linecap="round" stroke-linejoin="round" d="M407.400 421.000L450.600,421.000 450.600,406.600 407.400,406.600 Z"/>
	<path fill="none" stroke="#00ACF1" stroke-width="16.00" stroke-linecap="round" stroke-linejoin="round" d="M465.000 464.200L249.000,464.200 249.000,449.800 465.000,449.800 Z"/>
	<path fill="none" stroke="#00ACF1" stroke-width="2.00" stroke-linecap="round" stroke-linejoin="round" d="M411.329 452.684C416.785,443.788 422.494,432.962 427.696,425.997 431.437,420.990 435.100,416.809 438.525,413.970 440.972,411.942 443.231,411.108 445.583,409.678 "/>
	<path fill="none" stroke="#00ACF1" stroke-width="2.00" stroke-linecap="round" stroke-linejoin="round" d="M412.945 438.779C418.216,434.258 423.227,429.192 428.758,425.214 434.122,421.356 439.975,418.521 445.583,415.175 "/>
	<path fill="none" stroke="#00ACF1" stroke-width="2.00" stroke-linecap="round" stroke-linejoin="round" d="M407.128 437.163C420.700,429.294 434.273,421.426 447.846,413.558 "/>
	<path fill="none" stroke="#00ACF1" stroke-width="2.00" stroke-linecap="round" stroke-linejoin="round" d="M424.578 442.983C429.533,436.085 434.488,429.187 439.443,422.289 "/>
	<path fill="none" stroke="#00ACF1" stroke-width="2.00" stroke-linecap="round" stroke-linejoin="round" d="M422.316 428.756C422.747,428.540 423.178,428.324 423.609,428.109 "/>
	<path stroke="none" fill="#00ACF1" d=""/>
	<path fill="none" stroke="#00ACF1" stroke-width="2.00" stroke-linecap="round" stroke-linejoin="round" d="M407.400 449.800L450.600,392.200 "/>
	<path fill="none" stroke="#00ACF1" stroke-width="2.00" stroke-linecap="round" stroke-linejoin="round" d="M421.800 428.200L450.600,413.800 "/>
	<path fill="none" stroke="#00ACF1" stroke-width="14.00" stroke-linecap="round" stroke-linejoin="round" d="M407.400 457.000L465.000,392.200 "/>
	<path fill="none" stroke="#00ACF1" stroke-width="14.00" stroke-linecap="round" stroke-linejoin="round" d="M465.000 471.400L306.600,471.400 "/>
	<path opacity="0.51" fill="none" stroke="#00FF0F" stroke-width="2.00" stroke-linecap="round" stroke-linejoin="round" d="M162.600 147.400L306.600,147.400 306.600,334.600 162.600,334.600 Z"/>
	<path opacity="0.51" fill="none" stroke="#00FF0F" stroke-width="2.00" stroke-linecap="round" stroke-linejoin="round" d="M162.600 241.000L306.600,241.000 "/>
	<path opacity="0.51" fill="none" stroke="#00FF0F" stroke-width="2.00" stroke-linecap="round" stroke-linejoin="round" d="M191.400 226.600L277.800,226.600 277.800,255.400 191.400,255.400 Z"/>
	<path opacity="0.51" fill="none" stroke="#00FF0F" stroke-width="2.00" stroke-linecap="round" stroke-linejoin="round" d="M191.400 176.200L277.800,176.200 277.800,305.800 191.400,305.800 Z"/>
	<ellipse opacity="0.51" fill="none" stroke="#00FF0F" stroke-width="2.00" stroke-linecap="round" stroke-linejoin="round" cx="234.600" cy="298.600" rx="14.400" ry="14.400" />
	<ellipse opacity="0.51" fill="none" stroke="#00FF0F" stroke-width="2.00" stroke-linecap="round" stroke-linejoin="round" cx="234.600" cy="241.000" rx="14.400" ry="14.400" />
	<ellipse opacity="0.51" fill="none" stroke="#00FF0F" stroke-width="2.00" stroke-linecap="round" stroke-linejoin="round" cx="234.600" cy="183.400" rx="14.400" ry="14.400" />
	<path opacity="0.51" fill="none" stroke="#00FF0F" stroke-width="2.00" stroke-linecap="round" stroke-linejoin="round" d="M249.000 183.400L256.200,147.400 "/>
	<path opacity="0.51" fill="none" stroke="#00FF0F" stroke-width="2.00" stroke-linecap="round" stroke-linejoin="round" d="M213.000 147.400L220.200,183.400 "/>
	<path opacity="0.51" fill="none" stroke="#00FF0F" stroke-width="2.00" stroke-linecap="round" stroke-linejoin="round" d="M249.000 298.600L256.200,334.600 "/>
	<path opacity="0.51" fill="none" stroke="#00FF0F" stroke-width="2.00" stroke-linecap="round" stroke-linejoin="round" d="M213.000 334.600L220.200,298.600 "/>
	<path opacity="0.51" fill="none" stroke="#00FF0F" stroke-width="2.00" stroke-linecap="round" stroke-linejoin="round" d="M335.400 147.400L479.400,147.400 479.400,334.600 335.400,334.600 Z"/>
	<path opacity="0.51" fill="none" stroke="#00FF0F" stroke-width="2.00" stroke-linecap="round" stroke-linejoin="round" d="M335.400 241.000L479.400,241.000 "/>
	<path opacity="0.51" fill="none" stroke="#00FF0F" stroke-width="2.00" stroke-linecap="round" stroke-linejoin="round" d="M364.200 226.600L450.600,226.600 450.600,255.400 364.200,255.400 Z"/>
	<path opacity="0.51" fill="none" stroke="#00FF0F" stroke-width="2.00" stroke-linecap="round" stroke-linejoin="round" d="M364.200 176.200L450.600,176.200 450.600,305.800 364.200,305.800 Z"/>
	<ellipse opacity="0.51" fill="none" stroke="#00FF0F" stroke-width="2.00" stroke-linecap="round" stroke-linejoin="round" cx="407.400" cy="298.600" rx="14.400" ry="14.400" />
	<ellipse opacity="0.51" fill="none" stroke="#00FF0F" stroke-width="2.00" stroke-linecap="round" stroke-linejoin="round" cx="407.400" cy="241.000" rx="14.400" ry="14.400" />
	<ellipse opacity="0.51" fill="none" stroke="#00FF0F" stroke-width="2.00" stroke-linecap="round" stroke-linejoin="round" cx="407.400" cy="183.400" rx="14.400" ry="14.400" />
	<path opacity="0.51" fill="none" stroke="#00FF0F" stroke-width="2.00" stroke-linecap="round" stroke-linejoin="round" d="M421.800 183.400L429.000,147.400 "/>
	<path opacity="0.51" fill="none" stroke="#00FF0F" stroke-width="2.00" stroke-linecap="round" stroke-linejoin="round" d="M385.800 147.400L393.000,183.400 "/>
	<path opacity="0.51" fill="none" stroke="#00FF0F" stroke-width="2.00" stroke-linecap="round" stroke-linejoin="round" d="M421.800 298.600L429.000,334.600 "/>
	<path opacity="0.51" fill="none" stroke="#00FF0F" stroke-width="2.00" stroke-linecap="round" stroke-linejoin="round" d="M385.800 334.600L393.000,298.600 "/>
	<g>
		<path fill="none" stroke="#E7E7E7" stroke-width="16.00" stroke-linecap="round" stroke-linejoin="round" d="M537.000 75.400L573.000,75.400 573.000,680.200 537.000,680.200 Z"/>
		<path fill="none" stroke="#E7E7E7" stroke-width="16.00" stroke-linecap="round" stroke-linejoin="round" d="M565.800 99.592L551.400,99.592 551.400,656.008 565.800,656.008 Z"/>
	</g>
	<g>
		<path fill="none" stroke="#E7E7E7" stroke-width="16.00" stroke-linecap="round" stroke-linejoin="round" d="M568.960 69.030L569.632,105.026 80.232,110.369 79.560,74.373 Z"/>
		<path fill="none" stroke="#E7E7E7" stroke-width="16.00" stroke-linecap="round" stroke-linejoin="round" d="M549.922 98.040L549.653,83.642 99.405,88.557 99.674,102.956 Z"/>
	</g>
	<g>
		<path fill="none" stroke="#E7E7E7" stroke-width="16.00" stroke-linecap="round" stroke-linejoin="round" d="M69.000 75.400L105.000,75.400 105.000,687.400 69.000,687.400 Z"/>
		<path fill="none" stroke="#E7E7E7" stroke-width="16.00" stroke-linecap="round" stroke-linejoin="round" d="M97.800 99.880L83.400,99.880 83.400,662.920 97.800,662.920 Z"/>
	</g>
	<path fill="none" stroke="#E7E7E7" stroke-width="16.00" stroke-linecap="round" stroke-linejoin="round" d="M573.000 68.200L573.000,118.600 "/>
	<path fill="none" stroke="#E7E7E7" stroke-width="16.00" stroke-linecap="round" stroke-linejoin="round" d="M558.600 82.600L565.800,82.600 "/>
	<path fill="none" stroke="#E7E7E7" stroke-width="16.00" stroke-linecap="round" stroke-linejoin="round" d="M90.600 89.800L133.800,89.800 "/>
	<g>
		<path fill="none" stroke="#E7E7E7" stroke-width="16.00" stroke-linecap="round" stroke-linejoin="round" d="M561.760 645.030L562.432,681.026 73.032,686.369 72.360,650.373 Z"/>
		<path fill="none" stroke="#E7E7E7" stroke-width="16.00" stroke-linecap="round" stroke-linejoin="round" d="M542.722 674.040L542.453,659.642 92.205,664.557 92.474,678.956 Z"/>
	</g>
	<path fill="none" stroke="#E7E7E7" stroke-width="16.00" stroke-linecap="round" stroke-linejoin="round" d="M537.000 665.800L551.400,665.800 "/>
	<path fill="none" stroke="#E7E7E7" stroke-width="16.00" stroke-linecap="round" stroke-linejoin="round" d="M213.000 673.000L105.000,673.000 "/>
	<path fill="none" stroke="#E7E7E7" stroke-width="16.00" stroke-linecap="round" stroke-linejoin="round" d="M69.000 673.000L141.000,673.000 "/>
	<path fill="none" stroke="#E7E7E7" stroke-width="16.00" stroke-linecap="round" stroke-linejoin="round" d="M551.400 89.800L565.800,133.000 "/>
	<path fill="none" stroke="#E7E7E7" stroke-width="16.00" stroke-linecap="round" stroke-linejoin="round" d="M565.800 89.800L565.800,118.600 "/>
	<text x="277.800" y="794.794" transform="matrix(3.1707 0.0000 0.0000 3.1707 -603.0322 -1725.2937)" style="font-family:Roboto;font-size:14.00;fill:#000000;stroke:none;">Banheiros</text>
	<text x="241.800" y="864.538" transform="matrix(4.3192 0.0000 0.0000 3.8058 -802.5827 -2425.7046)" style="font-family:Roboto;font-size:14.00;fill:#000000;stroke:none;">Quadra</text>
	<text x="169.800" y="914.938" transform="matrix(4.3192 0.0000 0.0000 3.8058 -563.6003 -2567.1155)" style="font-family:Roboto;font-size:14.00;fill:#000000;stroke:none;">Poliesportiva</text>
</g>
</svg>
